<mxfile host="app.diagrams.net" modified="2022-01-09T04:29:47.057Z" agent="5.0 (Macintosh; Intel Mac OS X 10_15_7) AppleWebKit/537.36 (KHTML, like Gecko) Chrome/96.0.4664.110 Safari/537.36" etag="WKANQmemPh1Jz5Z5oL5A" version="16.2.4" type="github">
  <diagram id="Xk7DdqwGz21JMi8Jqe_0" name="Page-1">
    <mxGraphModel dx="823" dy="534" grid="1" gridSize="10" guides="1" tooltips="1" connect="1" arrows="1" fold="1" page="1" pageScale="1" pageWidth="827" pageHeight="1169" background="none" math="0" shadow="0">
      <root>
        <mxCell id="0" />
        <mxCell id="1" parent="0" />
        <mxCell id="3JeaJtggGYgkC80GPTok-1" value="" style="rounded=0;whiteSpace=wrap;html=1;" parent="1" vertex="1">
          <mxGeometry x="310" y="30" width="330" height="280" as="geometry" />
        </mxCell>
        <mxCell id="py5BAItJTNhBM44P2KK3-6" style="edgeStyle=orthogonalEdgeStyle;rounded=0;orthogonalLoop=1;jettySize=auto;html=1;exitX=1;exitY=0.5;exitDx=0;exitDy=0;" parent="1" source="3JeaJtggGYgkC80GPTok-2" target="py5BAItJTNhBM44P2KK3-5" edge="1">
          <mxGeometry relative="1" as="geometry" />
        </mxCell>
        <mxCell id="3JeaJtggGYgkC80GPTok-2" value="" style="rounded=1;whiteSpace=wrap;html=1;" parent="1" vertex="1">
          <mxGeometry x="10" y="370" width="640" height="60" as="geometry" />
        </mxCell>
        <mxCell id="3JeaJtggGYgkC80GPTok-3" value="" style="rounded=1;whiteSpace=wrap;html=1;" parent="1" vertex="1">
          <mxGeometry x="10" y="455" width="640" height="60" as="geometry" />
        </mxCell>
        <mxCell id="3JeaJtggGYgkC80GPTok-4" value="" style="rounded=0;whiteSpace=wrap;html=1;" parent="1" vertex="1">
          <mxGeometry x="20" y="30" width="120" height="280" as="geometry" />
        </mxCell>
        <mxCell id="3JeaJtggGYgkC80GPTok-7" value="code editor&amp;nbsp;" style="text;html=1;strokeColor=none;fillColor=none;align=center;verticalAlign=middle;whiteSpace=wrap;rounded=0;" parent="1" vertex="1">
          <mxGeometry x="422.5" y="30" width="105" height="30" as="geometry" />
        </mxCell>
        <mxCell id="3JeaJtggGYgkC80GPTok-10" value="promises&amp;nbsp;" style="text;html=1;strokeColor=none;fillColor=none;align=center;verticalAlign=middle;whiteSpace=wrap;rounded=0;" parent="1" vertex="1">
          <mxGeometry x="402" y="120" width="146" height="60" as="geometry" />
        </mxCell>
        <mxCell id="3JeaJtggGYgkC80GPTok-11" value="setTimeOut(),setInterval()" style="text;html=1;strokeColor=none;fillColor=none;align=center;verticalAlign=middle;whiteSpace=wrap;rounded=0;" parent="1" vertex="1">
          <mxGeometry x="426.5" y="60" width="97" height="30" as="geometry" />
        </mxCell>
        <mxCell id="3JeaJtggGYgkC80GPTok-12" value="normal code any function&lt;br&gt;function(){console.log(&#39;hello&#39;)}()" style="text;html=1;strokeColor=none;fillColor=none;align=center;verticalAlign=middle;whiteSpace=wrap;rounded=0;" parent="1" vertex="1">
          <mxGeometry x="370" y="230" width="210" height="30" as="geometry" />
        </mxCell>
        <mxCell id="py5BAItJTNhBM44P2KK3-2" value="promises queue(fifo)" style="text;html=1;strokeColor=none;fillColor=none;align=center;verticalAlign=middle;whiteSpace=wrap;rounded=0;" parent="1" vertex="1">
          <mxGeometry x="560" y="380" width="60" height="30" as="geometry" />
        </mxCell>
        <mxCell id="py5BAItJTNhBM44P2KK3-7" style="edgeStyle=orthogonalEdgeStyle;rounded=0;orthogonalLoop=1;jettySize=auto;html=1;entryX=0;entryY=0.5;entryDx=0;entryDy=0;" parent="1" source="py5BAItJTNhBM44P2KK3-3" target="py5BAItJTNhBM44P2KK3-5" edge="1">
          <mxGeometry relative="1" as="geometry" />
        </mxCell>
        <mxCell id="py5BAItJTNhBM44P2KK3-3" value="set time out &amp;amp;&amp;amp; set interval queue" style="text;html=1;strokeColor=none;fillColor=none;align=center;verticalAlign=middle;whiteSpace=wrap;rounded=0;" parent="1" vertex="1">
          <mxGeometry x="490" y="470" width="150" height="30" as="geometry" />
        </mxCell>
        <mxCell id="py5BAItJTNhBM44P2KK3-5" value="call Back queues" style="text;html=1;strokeColor=none;fillColor=none;align=center;verticalAlign=middle;whiteSpace=wrap;rounded=0;" parent="1" vertex="1">
          <mxGeometry x="700" y="430" width="60" height="30" as="geometry" />
        </mxCell>
        <mxCell id="py5BAItJTNhBM44P2KK3-8" value="call stack(lifo)" style="text;html=1;strokeColor=none;fillColor=none;align=center;verticalAlign=middle;whiteSpace=wrap;rounded=0;" parent="1" vertex="1">
          <mxGeometry x="40" y="40" width="80" height="30" as="geometry" />
        </mxCell>
        <mxCell id="d4rYrc1EAXYVUITNwqq1-1" value="" style="ellipse;whiteSpace=wrap;html=1;aspect=fixed;" parent="1" vertex="1">
          <mxGeometry x="40" y="300" width="80" height="80" as="geometry" />
        </mxCell>
        <mxCell id="d4rYrc1EAXYVUITNwqq1-2" value="event loop" style="text;html=1;strokeColor=none;fillColor=none;align=center;verticalAlign=middle;whiteSpace=wrap;rounded=0;" parent="1" vertex="1">
          <mxGeometry x="50" y="325" width="60" height="30" as="geometry" />
        </mxCell>
        <mxCell id="q7wSgVU4PSk6JkFq7qRN-1" value="" style="rounded=0;whiteSpace=wrap;html=1;rotation=90;" vertex="1" parent="1">
          <mxGeometry x="-20" y="740" width="494.38" height="208.75" as="geometry" />
        </mxCell>
        <mxCell id="q7wSgVU4PSk6JkFq7qRN-5" value="anonymous" style="text;html=1;strokeColor=none;fillColor=none;align=center;verticalAlign=middle;whiteSpace=wrap;rounded=0;" vertex="1" parent="1">
          <mxGeometry x="180" y="1060" width="60" height="30" as="geometry" />
        </mxCell>
        <mxCell id="q7wSgVU4PSk6JkFq7qRN-6" value="example1()" style="text;html=1;strokeColor=none;fillColor=none;align=center;verticalAlign=middle;whiteSpace=wrap;rounded=0;" vertex="1" parent="1">
          <mxGeometry x="180" y="1030" width="60" height="30" as="geometry" />
        </mxCell>
        <mxCell id="q7wSgVU4PSk6JkFq7qRN-7" value="example2()" style="text;html=1;strokeColor=none;fillColor=none;align=center;verticalAlign=middle;whiteSpace=wrap;rounded=0;" vertex="1" parent="1">
          <mxGeometry x="180" y="1000" width="60" height="30" as="geometry" />
        </mxCell>
        <mxCell id="q7wSgVU4PSk6JkFq7qRN-8" value="example3()" style="text;html=1;strokeColor=none;fillColor=none;align=center;verticalAlign=middle;whiteSpace=wrap;rounded=0;" vertex="1" parent="1">
          <mxGeometry x="180" y="970" width="60" height="30" as="geometry" />
        </mxCell>
        <mxCell id="q7wSgVU4PSk6JkFq7qRN-9" value="&lt;h1&gt;Call Stack&lt;/h1&gt;" style="text;html=1;strokeColor=none;fillColor=none;spacing=5;spacingTop=-20;whiteSpace=wrap;overflow=hidden;rounded=0;" vertex="1" parent="1">
          <mxGeometry x="132.19" y="602.17" width="190" height="120" as="geometry" />
        </mxCell>
        <mxCell id="q7wSgVU4PSk6JkFq7qRN-11" value="" style="shape=image;verticalLabelPosition=bottom;labelBackgroundColor=default;verticalAlign=top;aspect=fixed;imageAspect=0;image=data:image/png,iVBORw0KGgoAAAANSUhEUgAAAXIAAAHqCAYAAAAZEcUnAAAMa2lDQ1BJQ0MgUHJvZmlsZQAASImVVwdYU8kWnltSSWgBBKSE3gSRGkBKCC2A9CLYCEkgocSYEFTsZVHBtYsI2NBVEcW2AmLHriyKvS8WVJR1URcbKm9CArruK987+ebeP2fO/KdkJvceALQ+8KTSPFQbgHxJgSwhPJg5Oi2dSXoKEPghAwCceXy5lB0XFw0xGLj/Xd7dgLZQrjoruf45/19FVyCU8wFAxkKcKZDz8yE+DgBexZfKCgAgKvVWkwukSjwbYj0ZDBDiVUqcrcLblThThQ/32yQlcCC+DACZxuPJsgHQvAf1zEJ+NuTR/Ayxq0QglgCgNQziAL6IJ4BYGfuw/PyJSlwOsT20l0IM4wGszO84s//GnznIz+NlD2JVXv1CDhHLpXm8qf9naf635OcpBnzYwkETySISlPnDGt7KnRilxDSIuySZMbHKWkP8QSxQ1R0AlCpSRCSr7FETvpwD6wcMIHYV8EKiIDaBOEySFxOt1mdmicO4EMPdgk4RF3CTIDaEeKFQHpqottkom5ig9oXWZ8k4bLX+HE/W71fp64EiN5mt5n8jEnLV/JhmkSgpFWIqxNaF4pQYiDUhdpHnJkapbUYWiTgxAzYyRYIyfmuIE4SS8GAVP1aYJQtLUNuX5MsH8sU2isTcGDXeVyBKilDVBzvF5/XHD3PBLgsl7OQBHqF8dPRALgJhSKgqd+y5UJKcqOb5IC0ITlCtxanSvDi1PW4pzAtX6i0h9pAXJqrX4ikFcHOq+PEsaUFckipOvCiHFxmnigdfBqIBB4QAJlDAkQkmghwgbu1q6ILfVDNhgAdkIBsIgbNaM7AitX9GAq+JoAj8AZEQyAfXBffPCkEh1H8Z1KquziCrf7awf0UueApxPogCefC7on+VZNBbCngCNeJ/eOfBwYfx5sGhnP/3+gHtNw0baqLVGsWAR6bWgCUxlBhCjCCGER1wYzwA98Oj4TUIDjechfsM5PHNnvCU0EZ4RLhOaCfcniCeK/shylGgHfKHqWuR+X0tcFvI6YkH4/6QHTLjBrgxcMY9oB82Hgg9e0ItRx23sirMH7j/lsF3v4bajuJKQSlDKEEU+x9Xajpqeg6yKGv9fX1UsWYO1pszOPOjf8531RfAe9SPlthCbD92FjuBnccOYw2AiR3DGrEW7IgSD+6uJ/27a8BbQn88uZBH/A9/PLVPZSXlrrWuna6fVXMFwikFyoPHmSidKhNniwqYbPh0EDK5Er7LMKabq5sbAMpnjerv6218/zMEMWj5ppv3OwD+x/r6+g5900UeA2CvNzz+B7/p7FkA6GgAcO4gXyErVOlw5YUA/yW04EkzAmbACtjDfNyAF/ADQSAURIJYkATSwHhYZRHc5zIwGUwHc0AxKAXLwGpQATaAzWA72AX2gQZwGJwAZ8BFcBlcB3fh7ukAL0E3eAd6EQQhIXSEgRgh5ogN4oS4ISwkAAlFopEEJA3JQLIRCaJApiPzkFJkBVKBbEJqkL3IQeQEch5pQ24jD5FO5A3yCcVQGqqHmqK26HCUhbLRKDQJHYdmo5PQInQ+ugQtR6vRnWg9egK9iF5H29GXaA8GMA3MALPAnDEWxsFisXQsC5NhM7ESrAyrxuqwJvg7X8XasS7sI07EGTgTd4Y7OAJPxvn4JHwmvhivwLfj9fgp/Cr+EO/GvxLoBBOCE8GXwCWMJmQTJhOKCWWErYQDhNPwLHUQ3hGJRAOiHdEbnsU0Yg5xGnExcR1xN/E4sY34mNhDIpGMSE4kf1IsiUcqIBWT1pJ2ko6RrpA6SB/IGmRzshs5jJxOlpDnksvIO8hHyVfIz8i9FG2KDcWXEksRUKZSllK2UJoolygdlF6qDtWO6k9NouZQ51DLqXXU09R71LcaGhqWGj4a8Rpijdka5Rp7NM5pPNT4SNOlOdI4tLE0BW0JbRvtOO027S2dTrelB9HT6QX0JfQa+kn6A/oHTYamiyZXU6A5S7NSs17ziuYrLYqWjRZba7xWkVaZ1n6tS1pd2hRtW22ONk97pnal9kHtm9o9OgydETqxOvk6i3V26JzXea5L0rXVDdUV6M7X3ax7UvcxA2NYMTgMPmMeYwvjNKNDj6hnp8fVy9Er1dul16rXra+r76Gfoj9Fv1L/iH67AWZga8A1yDNYarDP4IbBpyGmQ9hDhEMWDakbcmXIe8OhhkGGQsMSw92G1w0/GTGNQo1yjZYbNRjdN8aNHY3jjScbrzc+bdw1VG+o31D+0JKh+4beMUFNHE0STKaZbDZpMekxNTMNN5WarjU9adplZmAWZJZjtsrsqFmnOcM8wFxsvsr8mPkLpj6TzcxjljNPMbstTCwiLBQWmyxaLXot7SyTLeda7ra8b0W1YlllWa2yarbqtja3HmU93brW+o4NxYZlI7JZY3PW5r2tnW2q7QLbBtvndoZ2XLsiu1q7e/Z0+0D7SfbV9tcciA4sh1yHdQ6XHVFHT0eRY6XjJSfUyctJ7LTOqW0YYZjPMMmw6mE3nWnObOdC51rnhy4GLtEuc10aXF4Ntx6ePnz58LPDv7p6uua5bnG9O0J3ROSIuSOaRrxxc3Tju1W6XXOnu4e5z3JvdH/t4eQh9FjvccuT4TnKc4Fns+cXL28vmVedV6e3tXeGd5X3TZYeK461mHXOh+AT7DPL57DPR18v3wLffb5/+jn75frt8Hs+0m6kcOSWkY/9Lf15/pv82wOYARkBGwPaAy0CeYHVgY+CrIIEQVuDnrEd2DnsnexXwa7BsuADwe85vpwZnOMhWEh4SElIa6huaHJoReiDMMuw7LDasO5wz/Bp4ccjCBFREcsjbnJNuXxuDbc70jtyRuSpKFpUYlRF1KNox2hZdNModFTkqJWj7sXYxEhiGmJBLDd2Zez9OLu4SXGH4onxcfGV8U8TRiRMTzibyEickLgj8V1ScNLSpLvJ9smK5OYUrZSxKTUp71NDUlekto8ePnrG6ItpxmnitMZ0UnpK+tb0njGhY1aP6RjrObZ47I1xduOmjDs/3nh83vgjE7Qm8CbszyBkpGbsyPjMi+VV83oyuZlVmd18Dn8N/6UgSLBK0Cn0F64QPsvyz1qR9TzbP3tldqcoUFQm6hJzxBXi1zkRORty3ufG5m7L7ctLzdudT87PyD8o0ZXkSk5NNJs4ZWKb1ElaLG2f5Dtp9aRuWZRsqxyRj5M3FujBl/oWhb3iJ8XDwoDCysIPk1Mm75+iM0UypWWq49RFU58VhRX9Mg2fxp/WPN1i+pzpD2ewZ2yaiczMnNk8y2rW/Fkds8Nnb59DnZM757e5rnNXzP1rXuq8pvmm82fPf/xT+E+1xZrFsuKbC/wWbFiILxQvbF3kvmjtoq8lgpILpa6lZaWfF/MXX/h5xM/lP/ctyVrSutRr6fplxGWSZTeWBy7fvkJnRdGKxytHraxfxVxVsuqv1RNWny/zKNuwhrpGsaa9PLq8ca312mVrP1eIKq5XBlfurjKpWlT1fp1g3ZX1QevrNphuKN3waaN4461N4Zvqq22ryzYTNxdufrolZcvZX1i/1Gw13lq69cs2ybb27QnbT9V419TsMNmxtBatVdR27hy78/KukF2Ndc51m3Yb7C7dA/Yo9rzYm7H3xr6ofc37WfvrfrX5teoA40BJPVI/tb67QdTQ3pjW2HYw8mBzk1/TgUMuh7YdtjhceUT/yNKj1KPzj/YdKzrWc1x6vOtE9onHzROa754cffLaqfhTraejTp87E3bm5Fn22WPn/M8dPu97/uAF1oWGi14X61s8Ww785vnbgVav1vpL3pcaL/tcbmob2Xb0SuCVE1dDrp65xr128XrM9bYbyTdu3Rx7s/2W4Nbz23m3X98pvNN7d/Y9wr2S+9r3yx6YPKj+3eH33e1e7UcehjxseZT46O5j/uOXT+RPPnfMf0p/WvbM/FnNc7fnhzvDOi+/GPOi46X0ZW9X8R86f1S9sn/1659Bf7Z0j+7ueC173fdm8Vujt9v+8viruSeu58G7/He970s+GH3Y/pH18eyn1E/Peid/Jn0u/+Lwpelr1Nd7ffl9fVKejNf/KoDBgWZlAfBmGwD0NAAYsG+jjlH1gv2CqPrXfgT+E1b1i/3iBUAdfH+P74JvNzcB2LMFtl+QXwv2qnF0AJJ8AOruPjjUIs9yd1Nx0WCfQnjQ1/cW9myklQB8WdbX11vd1/dlMwwW9o7HJaoeVClE2DNsDP2SmZ8J/o2o+tPvcvzxDpQReIAf7/8CO8iQnBceu8oAAACWZVhJZk1NACoAAAAIAAUBEgADAAAAAQABAAABGgAFAAAAAQAAAEoBGwAFAAAAAQAAAFIBKAADAAAAAQACAACHaQAEAAAAAQAAAFoAAAAAAAAAkAAAAAEAAACQAAAAAQADkoYABwAAABIAAACEoAIABAAAAAEAAAFyoAMABAAAAAEAAAHqAAAAAEFTQ0lJAAAAU2NyZWVuc2hvdO5D9CYAAAAJcEhZcwAAFiUAABYlAUlSJPAAAALdaVRYdFhNTDpjb20uYWRvYmUueG1wAAAAAAA8eDp4bXBtZXRhIHhtbG5zOng9ImFkb2JlOm5zOm1ldGEvIiB4OnhtcHRrPSJYTVAgQ29yZSA2LjAuMCI+CiAgIDxyZGY6UkRGIHhtbG5zOnJkZj0iaHR0cDovL3d3dy53My5vcmcvMTk5OS8wMi8yMi1yZGYtc3ludGF4LW5zIyI+CiAgICAgIDxyZGY6RGVzY3JpcHRpb24gcmRmOmFib3V0PSIiCiAgICAgICAgICAgIHhtbG5zOmV4aWY9Imh0dHA6Ly9ucy5hZG9iZS5jb20vZXhpZi8xLjAvIgogICAgICAgICAgICB4bWxuczp0aWZmPSJodHRwOi8vbnMuYWRvYmUuY29tL3RpZmYvMS4wLyI+CiAgICAgICAgIDxleGlmOlVzZXJDb21tZW50PlNjcmVlbnNob3Q8L2V4aWY6VXNlckNvbW1lbnQ+CiAgICAgICAgIDxleGlmOlBpeGVsWERpbWVuc2lvbj4yODgwPC9leGlmOlBpeGVsWERpbWVuc2lvbj4KICAgICAgICAgPGV4aWY6UGl4ZWxZRGltZW5zaW9uPjE4MDA8L2V4aWY6UGl4ZWxZRGltZW5zaW9uPgogICAgICAgICA8dGlmZjpSZXNvbHV0aW9uVW5pdD4yPC90aWZmOlJlc29sdXRpb25Vbml0PgogICAgICAgICA8dGlmZjpYUmVzb2x1dGlvbj4xNDQvMTwvdGlmZjpYUmVzb2x1dGlvbj4KICAgICAgICAgPHRpZmY6WVJlc29sdXRpb24+MTQ0LzE8L3RpZmY6WVJlc29sdXRpb24+CiAgICAgICAgIDx0aWZmOk9yaWVudGF0aW9uPjE8L3RpZmY6T3JpZW50YXRpb24+CiAgICAgIDwvcmRmOkRlc2NyaXB0aW9uPgogICA8L3JkZjpSREY+CjwveDp4bXBtZXRhPgqLxgFpAABAAElEQVR4Aex9B2BUxfb3gZCekN5IAmlAIKFIkSpVUbqCHQXsPsvTT32C+vSp+Hw2/IsK+HyIFQUURalK771DAgRIQhLSe6MlfPOb3bl7d7O72U02IcnOgc2dO3Om3N/dPffcM2fOtOrStds1aqGUmHCshV6ZvCyJABH77UoYJAIcgdYSB4mAREAiIBFo3ghIQd68758cvURAIiARoDaRUdEtFoaWfG0t9qbJC5MISASsRkBq5FZDJitIBCQCEoGmhUCriMiYFjvZ2VhQd42L510lnDjeWF3KfiQCEgGJgIKA1MgVKGRCIiARkAg0TwSkIG+e902OWiIgEZAIKAhIQa5AIRMSAYmARKB5IiAFefO8b3LUEgGJgERAQUAKcgUKmZAISAQkAs0TASnIm+d9k6OWCEgEJAIKAlKQK1DIhERAIiARaJ4ISEHePO+bHLVEQCIgEVAQaKOkZOK6ItCmTRtq3bo1Xb16laqrq6/rWGTntkXAwcGB8KmqquIfU607OjpRq1ZEly9fNsVSa76TkxNFRUVRWHg4OTs706qVK2utIxmaPwJSkDeBe+jt7UOr16zmgvy5v/+d9uzZ0wRGJYdgKwR+/2MF+fv70UomVN+ZNctksytXrSAvL2/6eelSmj17tkk+UwUzZ86kCRMn8u+R4JGCXCDRso9SkKvur4eHB//BISs7O5sqKy+qShsuOevfs/iPr6SkxGIh7u8dRiNvfJiC/aLJ2cmNDy6vKI0W/v5Cww20Cbbs4xlED038mI9s/s9PUOWlsiY1yjvvuot/p65du0ZfzJ9ndmzLlv1GDz/8EE2+805asGABFRcXm+VXF8bFxdHtd9zBs65cuULJyclUUFCgZpHpFoyAFOTs5vr4eNPgQQMpPDxMudUbN22hkydPKecNlYiMiqS+ffry5pcsWWxRN06OrjR13PvUxsFJ4b92rZquVl1RzptTIsCnPd3S7zGqqr5CS/5626qht27toMOhVdOb8nn66af59SQkJFBeXr7Za/t64UKaOnUqtWnjQK+//jq99NJLZvnVhUOHDVVOJ02aRLk5Ocq5TLR8BOxakDs7O9HYsaMpOCjout3pZ55+hvcN2/i333xr0Ti6Rg1WhNeSP9+mtJwTzdqu7u7qQ2FBsRZduyHTlauXqayiiGdXV1cZFl/X87HjxpGrqysfw6efzKl1LFeuXKZt27bS8OHDqf+AgQSbOfIsofCwcM4G+7oU4pYg1rJ4mp4K04j4wpQihDheRxMTTzZi78Q0rzbUr/8A3uemjRv5RKclA/D1CuVs+cUXKDXrWLMW4pZcrzmekvI8mvfzY/xz6XK5OdZGL5s+fTrvMyc3l44cPWJR/5988gnng1Y+ddqDFtUBUys2UQ6CQiDJ/hCwa40cdktoMPv2HaCjx46Tp6cHdelSN82wLl+d3r1789do1F30449mmwgN6EwuLp6cJ9hXsxnItWtVFB3eR6l3idmH03N0DyPYj708g6niYhHlFKQqfEi4urSlIN9Ibs5Iy0pQylxdPKhdQCzzrrhCKReOENqIaNeT/H3CKb8onRJTdlLlxRKF31jCm/UZGtCRAn0jyKG1IxWUZFLS+T1UWqGz2Xp5BpK/d3tevZ1/jNKM+nqQmVeYSsVluUo5Ek5tXCg4QFdHFKZnJ5h9qMErKDwojkL8o8nD1ZeN6wJl5J6i7Pxk0YRybMXcR6JCezEJ2YrSMo+TQxsnigjpRqGBndkbQAGdSTtAmJMwR6Ghmgfu5o2bzLHplWVnZVFubh4FBPjTkCFD6asFX+mVyxOJgDEE7FqQFxQU0oKvvjGGS6Pk9eh5g9JP0unTStpYYszgp8inbTu9In/vcJo8YoaSV1iaRf/79VnlvHeXsdSry2hKzz5JP659XclHAkJp/JDnmV39Mn38wxSlrJ1/Z94mbO7r9iygUf0fV8qQGNJ7Cn2/aiYT6hl6+Thp4+BIw/pMpV6xt9Uou7nfw7R+70I6mLiGl3WLHk4De9xZg099PSjcfngJ7Tzyix5foF8k3TvqX3p5OPlsySMmHzKebr50182vsgdShxr1jp7ZSOt2/Y891HTarEPrNjR55EzO+9fuL5kN/1Em03UvsEN6TaE/tn5CJ5N31GgPGWFhYYr3SGKi7kFplNkgMysrkwvykJAQgxLTpy4uLqYLZUmLR8CuBfn1vrtC+8dbAXyMzdH+hNXkzbRYUEz7G5mmDE27mE6c3aJUM9RclYI6JCC0IMShdSZnHFL6hDY8rPdUWrbhPzVavevmf1J4cFeen5V/jtfDBCYeDlFhN/Axi0opmUfJkWm5IJiKosN68/S+E3/wo/iTmnlCJJUjzCmHT63j53iz6Nyhn1JmLAHtesqYf1Nbd39eDMzwlhDJ3jRgm+8eM4KqGf4Q2MYIOFReLKMTyVsoyCdSucZbWf6plF2Eh54h9e6je1M6duyYYbHZ85SUFOrWrRt7Q9S8gZll1hZ27arB3VKbuiVtSp7mg4AU5NfxXnXooNEOiwoLax3FoVN/KjzOzh5cKMIksGn/90q+rRPnmUlhybpZXFChnxE3Tqc+TMuPDuvFtNNWLP+a0iVMIkKIG9Oi4SYJc4qg9OxE9qaQyE8j2vVQBLkl11PCTC1C6Pp5tatVkHds308R4motetfRZTR60FPULWY49ex8C+04spTKKzUTp2KcOF66XEELlj+ruDbioXTnyFe522c7ZvLKyNFch7pOfLxm1yhglJ6eri6qNX3q1CkaP348xxiafW31b+jVi9q2bcvbTUlOqbV9ydDyENC9K7a8a2vyV+Tr68vHmJWT3STHuuXgIj1tU639uzprBIcYeL+4iTwJbRkC0pCy8s9y7dUwvzHO46Ju4t2UVOTXMIVsO/STMoSYcI0bqJKhTexlbwlq//Rz6YcUXLzc/QzZ+Xm0dlPzixcvGi03l5nIXBUF9WJC2hg98ugjtPz35bRu/XqaP38+Z8nPz6c333zLGLvMa+EISEF+HW+wWIrvxNzMmiLlsolGNZVV6N4cMCmqJl8vjT038dx2PU1dzXO90piwBWHS0pBwTTBRgQSfIU9OQbJhFhPspTxPTEAbMggTB5bmW0vCZRH1KiorjVbvEtuFgoNDFPMLhPinc+ZQZuYFo/wys2UjIAX5dby/OdmaRRuBgTqTw3Ucjl7XxhYYqf20W5FOQMEbxM3Fi9cvLGt6bxee7gF8bOoHkfpihR+6t1bgq8uQrjDipXNVOzHaupUOB3W909rJa8Q+sVaYd9Hau9HewQMH1M0q6XdmvUPT2OKht958kzA56ufnR2+9/Tbdd999Co9M2A8CUpBfx3udnKLR9IR9szGH0lrlgVHffsWbBdqB50pTI0y4ghwcjE8JOWjHfOXqJaNDV88FGGUwknnk6FElNyYmRklbkujUsSNnu3q1yuQy+6LiIoItfc2aNXT3XXcrb0GT2PJ+SfaHgBTk1/GeY9k2CAuDGsJ9TGiNbbTeIepL9TBh21XzWJOGbRzk7xVuTbVG4cXkKEho5oaderh686wiG75N7N+3X+kmPk4z8alk1JJor50ELynRmHxqYedrIVJTNGYwby/Nm1FtdWR5y0JACvLreD/Vr809e/a0+UgqKjU2bS/3mqabiJDuNu0vK+8sby8+ZihfsGNN4+oVmYgjY2vKL9b4vEczbxPEZlGTOuhYQXGmuqhe6aKiQrbKUuNS2jU+zqq2hP94RoZm3JZUTklN4WzWmnEsaVvyNH0E7F6QQxt2Y/Ew8FFPMrm4OCv5jo4NYy44ceIEi7Comcx66KGHbP5tyWe+0iBMTPaKHa0sUOnE3PE6sAVBtqRthzXeHwjkdefNr5ELc5EUBFfFvl3HU/9ud4gsvWNRqc6uPviGe8hVVVePsY4n+xNX8ZoY2803PqK0gofGmEF/4+eXr16k02z1qS3p5MlE3hxip1hK8B8Xprbly5dbWk3y2TkCxo2GdgTK4EEDqGvXLjWueOCA/oQPKCsrm3797fcaPLbI+HPtWh5+tHuPHiwWtZdVoUtr6/9c+kHuA40wt1hZOaT3/ezBUcL9uTGZqV6pWFtbtZVjpSfcDgd0n8wX2Tx7z1eUW5hG1SyMAELuQogeSFxttBl4gCBMAPzQ4aeODzxJqquv0c6jS5XFP6iMBUnTJnyotOPooFvROI1FhFRWZ7Lr+99vz3E++NufTT/AfdXhL96pw40Ec4s/i7ooIkhuPbCIhyVQGrZBYj4LWzt37jxyc3Oj2267jdaye10b/f05zZixSMyaWOIV5eW86YZSOmobtyy/vgjYvUauW9Ji+kZcI0u4TNc3V/LF/C94fBBorU8/84w5Vl2Zdji1TcJBWP+y4T2+DB+VIQSxKAcxVFZv/1zXnjqlWuSjztak1TjUXM247dBivuITqyDxkAj07cDipUdxYQkf7rPswWKKlm/+kC3FX8ZXUIIHXjAebt5MO9f3V2/NJiyxqlV8wCMIKzdFvmE4g982fUB7T6zgrGg7mMV3gRBHiII/tvwfHTypL2TVV2ru/l+jmjiI8RzYz+KxaEPXPvb44yLb5BEbjIiFRCtW6K9wNVlJW5CWlsZTEOTQ6iXZFwKtIiJj1N9Z+7p6G11tV+1kVsKJmn7KlnSBnV2wKQB8j4eyQElqLxBL6tfGA6+MABagysnJlbJyzxDMCA1Nrs6ePNAW3PNKynKoUGU+aei+zbUPGzneEBA6F0GzoJnX9kA0115tZf369aM5n37K2aY++CAJt0Rj9d544w0aM3YsYRHRyBEjag3boG6jXbt2tOzXX/lqUOSXlpZSeXkZ3T7xdjWbTLdQBOxeI28K9/Wjjz7ibmZVVdXUt6/x1YX1GSciGWJlJZbcN4YQx1iFuSQ181iTEeIYF3zhEQkyOeMwFZfmNKgQR3/Ytg+aOYTzuHHjkWWS4pkmDb7P5nxqlRBHgxcuXKDZ7HsEAY4HE+K0YMGQJPtAQGrkNrjP9dXIbTAE2YREQA8BzLcg3r41ni96DciTZoWA3U92Nqu7JQcrEbAQAez3ac2enxY2K9maKALStNJEb4wclkRAIiARsBQBKcgtRUrySQQkAhKBJoqANK004o35c61mYYq1Xd5621hrq0h+iYBEwI4QkBq5Hd1seakSAYlAy0RAauSNeF+bk2aN8KtYpKRP1+jSpcv6WfJMIiARuO4I2L0gRyzt6KhICgwM4DEuLrGl0fn5BZSUdIYqKioa/QYFBQXy+NUlxSVUpl12XdsgvL29+DJw+CBjQ2lb0K2jRpKzs7NeU9jkYPXqP/XyzJ1ERkZQ7149mfC/RCtWrjHHqlcW2i6EsJ+ph6cHW32pCXKFMAnbd+zS45MnEgGJgAYBuxbkffr0oj69eynBpNRfioED+tGhw0do9+696uwGTfv6+tBNgwfyPjZv2WaRIEe0u+HDhnDhf/LkaZsJ8tLSMior08Tv8PHxYRi1srptfz9ffi1oy1KK6NCecF8EId4KqLCwSGTJo0RAImCAgF0L8rDQUEWIl5WVUVFRMUGYIsgRzAq9bujJhdnx4ycMYGuY0x7dNTEyoFWLGB219dSpUwwX4lVsF/jEk6dqY7e4HA8SQePHj2EbDTtRvjZuiMiv7VjNVhiWs7eKjAzLth8D5jfc0IM3m812Tzp46DCr3/hvRbVdlyyXCDQ1BOxakMN0knTmLO3atVvRPnGD/P392K4rk/m9gmbeGILcn23V5afVYI8cOWbR9wTaeGznTpz31Okkq5d1W9KJs7MTF+LgzS8osKSKwnPgwCElbUkiwN+fP5TAK4W4JYhJHomABgG7FuR/rdtg9HsAbTg3N48CAvyV3Xtgf25I6tFDs4sM7POWCkwIcQhzaOOnTiU1yPB8mVlFEN5YzBFs6nij0SOmlWcy+7Yp8vP1JSf2sADBrAK6yq4HMblFXO4rl69QHttc2JCgwfv4eFMQ2/MUbZQxE86FzCwlxrshvzyXCLRUBOxakJu7qZlMIECQgzAh2pCENwDYoUFHjlqmjWNDjM5abRy2cQjzhiA/NjYQTCS1RWWMiGhP3Qx2w4GN21ws95uGDFImNMX4McE5aGB/cUqFRUW0YcNm5RwJ4DVs6GBFgxeFPXp0p/0HDtL585qwriJfHiUCLRkBKchN3N2QkGBecuXKlQb3XunRQ2Mbx1uApV4nsbGd+AQkBDjMQw1F0JhBeFOojYqZp81pZuIBtW/fnu1D6kzFtew7efbMOTYfoWm5UyfNpsM5OblsvkI3uZln0Dc8jAYPGsivHx4xaekZ3PwTyuc8WvEJbLTR0G9RmlHLvxKB64+AFORG7kH79uGKNn72bLIRDttlQSj5eGs2Rzh6zLJ45tg8QOy0npB4ku0NedV2AzJoSZhKjJk2DFj5TkpwEwQFBQVxQV7bA+CYdiIZfutCkJ84kWjSvARTErR1eNFggnrd+k3K24if7zkaPnwILwsLbUdnzp4zHKI8lwi0SAQa1mbQDCGDkLx11M185ND2Nm/Z2qBXITxVcnJzLXaxg20cggy25DNMo20owh6mEJyg2gSy4RgQDxtkqdugeGCgTnFJCQ5GKTIyQhnTps3bFCEO5oLCQuXcw8MdWZIkAnaBgBTkqtsMW/jkSbcThDmC869ctaZWu7CqutVJaONeXpqtzCz1VHFycqSOHWN4XwlMc20o2zg6gO1eUElJqUjWenR3d+cPGjAWWOjpgklLEBYdmXvD6MJMSqB0Zk7Bg1ZNuGdY0AVq1cDzGup+ZVoicL0RkIJcdQfGjxujeF2s37CJ4MvckNRTaxuHOQL2ZUsoNrazThtvYNOBn9YDpYRpyNZsh+arFcqY6LR0MZCwxReaWZkK84tYbZqSet4oXC7Oms2YLe3XaCMyUyLQzBCQglx7w0Yxc0oos6uCduzczZfoa4sa5BAcHKS41x09ZtmCI/h0x0RH8/HAt702L5L6Dlx4rOTl1T7Rqe5L+MOXllmuxQuNHOYRU+TJdrwRZGyhkIuLi/ImgBAHkiQC9oKAFOTsTg8dehMTkFH8nh88eJiOHDna4Pdf2MbhYw2N1xLqotXG4UnT0JOwGI9XWy8+LEv92sU1+Go9XSz1wIErpdC0zdVB7BVBlcwEY0jiHuJNwNoxG7YlzyUCzQkBuxfk/fr1pbiuXfg9O5GQSLv3NHxslRCmjXtqhdIxCz1VIOiiojQPG3h1WGPqqMsXEmYMTKiCKitqCk1zbQq7vzmhrK4vtHHkmZscVdvE1QuVUA9zBzEdNW8rZ8+da9C5A/QnSSLQlBCwa0Hes2d3Fp3vBn4/EA9k374DPM4KYq2oP7ZeECT8xi9cyGTauGXmh65dNLZxTOadPdewLpEARP2g6MjiucAn3BJyZeYN4elSaMZMom5LeKxAUJub6FRjFR0dqfSDyemRI4bxhUXQxrFASpJEwJ4QsGs/8m7xmmXxuOGwj0+f9oDRe7/2z3V0zkbCsx0L0YrdzUGW28adKVpr+jl+PEFPyBodsA0yYb7Bak54oOANYtzY0cwmr4lEuGv3HsLKVxC06f7srUaQg4PuK4U4NeKBUM7i2mzdukOw6R2Fdm1OG0cFxMZBv1ishfs1MSSEj1G83WB8cBdVa+56HckTiUALRcCuNXKmd1p0W69pBZhFzLUw9eiueXjgDQALWiwhYfqBNp6SkmpJFZvwbN6ynZJZf/BXB8HUgo9aM/Zjwb4g7MVHrbnjrUbkt25l+qvmrV0QZYldG8vvxaIjjEUIcXj9bGCeRpaac2wCkGxEItBEEGgVERljmTRrIgNuisPoGqcRzgknzK/MxIYJA5iWClq7dp1F8cYhGKENgxBNEIJVEnFTD4JqwRQDTV5o/hIbiYA9IqB7D7bHq2/ka+6u1cbT0tItEuIYHjxVQDAXmPKd5gx29ufixUsslkqunV21vFyJgHEEpEZuHBerci3VyDEJiABRVVXVFmuQmGiFCQH234b2G7fqoiWzREAi0GQQkBp5I96Kuiynh/Bm/yVJBCQCEgGTCJiegTJZRRZIBCQCEgGJQFNCQArypnQ35FgkAhIBiUAdEJCCvA6gySoSAYmARKApISBt5E3pbsixSAQkAtcNATgj4IO5LHPzWY6OTtxp4bI2ZHJdBowQGAi5ERYezuMMrVq5si7NKHWkIFegkAmJgETAlgg4ONUM61B99Qpda6Kz97//sYLH4F/JhOo7s2aZhGLlqhVsHwFv+nnpUpo9e7ZJPlMFM2fOpAkTJzJvNJ1BRApyU2hZmN+2rSe1Z09FhGx1ZysRsXoSmyGcYftgNlZM6+iw3jS0133k3TaExQvR7Ci/P3EVbdz7jYVX0TLYusUMp1v6P0pFJZm08I+XWsZF2elVtHFxown/XlTj6o/+vpDObF1RI99WGXh4BHTsTq3Yv7LcDCrNybCo6TvvuosLcSws+2L+PLN1li37jR5++CGafOedtGDBAraXQLFZfnVhXFwc3X7HHTwLYTCSk5Mt3nxF3Y5h2q418hv79qE+fXoZYsLPB/TvRwksGuLmLduMltsqMywwliaPnKk0d+2axtewuqrh9uFUOmuARHzMMOoeM5Iu5J6izQd+sKoHR0cX/iBzcdaEz7WqsmRuUghcq66iymJdbHlXLx8+PgjYhiAnNw/qOnoKRfQbRa0dNJruhWN7aPc371nU3dNPP835EhISKC8v32ydrxcupKlTp1KbNg70+uuv00svWa50DB02VGl70qRJlJtjm81r7FqQO2hvuFjmjSBRiB0i4nd0ZeFty1je/v0HFfBtnegbN543WVZRREvXzaK8ovO27qJR2/P3bk9hQbFMIFv/1aq8WELAIb84rVHHLDuzPQJVly/RmrcfVhqe+P4ScmijedtUMm2U6HX3U9ThxpHMbq0zVVjT9Nhx4wj704I+/WROrVWvXLlM27ZtZRt9D6f+AwayrSGdCHmWUHhYOGeDfd1WQhwNWv9rs2S0zYTn1OkkvkEDNj5WE27qtKlTuA3rhp49GlSQ+3qF8a5Ppu5o9kJcjWFd0onJOwgfSRIBaxBo32c4F+J4m007sIXCbhiqaOWWtDN9+nTOBjlw5OgRS6rQJ598wgU5tPKp0x6krxZ8ZVE9sZesuXDNFjVkwGTXgtxUpDzsPoMog1FRkXwjZsww12eGWo15K7ZGPyqUmXOwVp+Rh6tm02FXJw+KDu+jsBaVXGCa6QXlPMQ/hpyd3Fkes/uV5yn5SPi0bUdeHgFUVllEeYW6oFq+XqGsjIV6rSik7IJkCvaLooh2PcjNpS1l5Z2hBCY0hSlHr0HVCfoN8oskaNpXr16i3KI0On1+N9NAdBsfB/tFs/kFzauzv/bB5MauS309aDIt6wRdvqK/SYWnuz8bY7CqR2JYV1JW/lm9PMMTYNEhOJ6C/KPIobUj5bLrRvslBtignquLB7ULiGWeCFco5cIR8vEMYjj0JH+fcMovSqfElJ2EtwFbkiOzEYd07UM+EZ3JxdObCs4nUdaJfTVstm4+geQf1ZV3feHEXrp6saLGMMJ6DmaCqQ2VMptvIWtHIfYdCojpRoHMJuzuF8SzC9POUn5yAhWk1ozJLtopTEuiqEGjycHRmZJ3/0WFaWcoasCt3LZcnJlCpzf8SmrTXkiX3uTo5kkFKSep+loVhfUYTD4dOlFRxjnKPLqHSrJt/xbp074ju7Z48gnvSJdKCikvOZEyju40OlEKzNIOb6eENT/SlcpyCu0+kMih5kSrgptBIjQ0lOds3rjJoMT0aXZWFuXm5lFAgD8NGTLUYkFuusX6ldi1IDcHHWJfg7BEHpMStiKH1m30bOKi3bjooYSPoEOn/qR1uxeIUxp307NcYG87+BPtOvarko9E/263EyYKIaSWrntHKevV+Vbq1WU0pWefpPKLxdS5gybyomDoFz+Rvlv1CgtTW/P6PN18acLQFyk0sJNgV45jrj1F3696VRG2t/R7hEICOirlSLRlAnryiBl6eYvWvEYZOfoCpmenm2lA98l6fDCvzPv5Mb089UloYBe665ZXyamNZqNlddlfu7+kw6fWqbOonX9nPhY8tNbtWUCj+j+uVz6k9xR2PTOZULdsYkyvspGT4Li+1G/qS3qmBAiXbuOmUcKfP9HJv5YqtTC51uueZ7kGmZ98krZ8/opShkTcmAeo80gNPnu+eZ8KKYmXO7q609i3vquheUJYg3JOH6FdX71LVVd1r/w3PvgiLwMOwgzR4cYRTECfJr/IWF4W2n0ABUR3o23zX+fn+NOX1Wvj7Eq5SUfJnwlXUTe0W3+Ku+1+OrbiW0ravFzhr08Ck5X9p71MQbH6c1dRg8dQZdE02jL3Vaoo0H+DXvnGtDp3GRYWpniPJCYmWNVOVlYmF+QhLC6+pYR9ZRuCpCA3QBX7R0YzTTwuTqMlpadnWBzgyqApo6fQaPYe/539GDQa+Q2xt/EJvszcJErPSVTqpGQeU9L1TcBmDTqbfpCKS7MpvuNwLgT9fTpQdyZIDyau0esCAvKRO+YogjLp/F7KzEsiF/bWAE020LcDubvoJiQPn16njD0y9AamvYcz758KOpq0Xq/d4jL9HyAKzzMt2tW5LecL9o/mbw16lQxOPNy8acrot3nu1arLhL6vXLnIH4J4eEBIV1SWsLeGPQY18RLUmpfnsbeK5IxDFNP+RqadB/PrHNZ7Ki3b8J8adazNgAAa+PCrvBqEaMah7XSZaYnt4vuTm28Adb31PrpYXEApezTYVBbl0r5Fs5ng/wcXpp2G30GnN/3G6/tFxCpCPGXvBso4tlsZDjR0TOpVswBs0MBLs87TlcsXmXbfhfwiulBgpx40+G9v0pbPNGNRKrIE3P+yTx2koC69OCYQ4uX52VTF6rcN6cA1YQdm960ysPvCGwSEScSLpYWEhwYmGbuNn0YlrP/sk/WfSxr54sfk4d+O94O3jzx2bW5e/tSuxwBy9fanEc9/RKvefMioZs4rWfmndx/dW/CxY9b95lJSUqhbt25sTs3T4l67dtXIFUtt6pY2LAU5Q8rDw50mThjPFgO0VnbvAYDQxLfv2GkplhbxQcNXe3N0jhxEbd382Ov9DtqfsMqiNurCtPXgj7T7mEZAbNz/DU0f9wEzLXSg+KghNQT5kN73K0J88V9v0fnM47oumSdKV1anuEI3s3/sjO6V9BrzSoAgL2SmoU37v9fVM5FKZQ8sfEB4e4D5xxwN7nEPL4ZW+fXvL1AhezCBdh//jaaP/4gL5uF9phoV5ODDtSxhk8qoj/GNuHE69ekylqLDINRa1e+hzer3vf85dMMF3br3nqErWlMJ3O5GvDCbvEOjqMftj1Lqvo2KMMo4spPOs/P2fUdQ3NgHKPv0YeY6l0mDHn+DtwUN9NDP83ha/Ll6sZLQZvLOP/W0bpT3mz6DoC1DoEPQXq4oE9X4EW2l7tuk8OFh8Oe7T/Ky2z9Yxh8Q3mEx/AGhV5Gd4K1APFBOrPqebnv9fwQzUrdxU+styDv0Ha4I8cPLvqRzO3UKhu/WTjTs7++Tk3tb6jx8Ep3c8Ivh0Op0Hq/dJQxvRunp6Va1cerUKRo/fjz/3kCzr63+Db16EWLog1KSU/jRVn/qNs1rq96bSDuwgWPDYLEFG4YFgbv052VUVFTcREZZ92FAaO07sUJpANd2Ink7P/dw81fyReIGZpIBHT2zUV+IaxkSzm3Vs8VrsxvlEBulMR2cOLtVEeLoGDb7HYeW8DF4eQYSPsZoy8FFevMCJ85uUdjEm4GSYWUCWjAEDWjvdx8pQlw0AxMECOYDn/AYkc2PB5bOpYrCHK4h3/TEWzT48X9xcwaE7Ja5rylCX1SCtg9/bLXpRJSd265TCNx8a+JQnKmZRynL1czBXCrTfcevXtQIfWePmlomtHAhxNEXHlJntX1Bk8dbQn0o9ua7ePWS7DQ9IY5M2PzL8jTjDe0xsD7d6NWNjorm5xcvXtTLt+QkkbkqCurFhLQxeuTRR2j578tp3fr1NH/+fM6Sn59Pb775ljH2OufVD/k6d9u0KmLrsi3MX7w1W57rzQR6x47YbNiF7r/vHtq7dz8dOHioaQ3YytEUlWZRVfVVvVql5QX83MXZTS/fg01aChtowrltemXX+wTjEnbx1MyjNYaTmqV7c/B2D2JmpJwaPJgUVVMZmwgWhEnRCjaXUFfyCdMIBdQf+Og/zTbj1yFWb0IS5o6tc1+nUa/MZw8DT8VmDbMLzC/GCB4Qkf1vpfZ9hpGrly85uXrUYBMPFnXBVa3QqrqkEV7VKjt6FdtxCeTEJjcNKT/llGEWZSceIiGAYRKpz8Sni7cfb79tUDhNePfHGn2JlaIe/pbbpGs0YpAhTBxiw3CDYrOnwmURTBXMQcIYdYntQsHBuvFCiH86Zw7be1bzUDJWpy55UpAz1OAKdIIt/hG0bftOmnTHRHYDgqgf21g46cwZvX0qBV9zOZYzm7EhXWO2emMETxdBsKc3JWrrrvmhY0yllToBLMZYofI84Rp5lijRHPFmYjixW80WrghqRQ4iWacjtFJBmBw0R62da3pVQCM/uX4Jt6OjbgETnDC7GCOYTEbNnKu8AQgeXKOaHJ1c1Kc8XcWWyYPgxQNSe6hc0z7whZscZ9D+uVisM6eJ/EtMSxfkHhBcZ0EOH3O1n7lZ/LTrP0S/9TmePn2aevTsSXgrF3FWLG2vi9beDf6DBw4YrfbOrHcoiMkRxFV54sknuFB/6+23ydfXl3766SejdeqSKQW5CdTWb9hID0y5j5dGRkbSkSM1NUATVRs929zGxtYOBi6Ggto00AIO0b61x6pqjeBBPXj/GJIahyo2EdrYhMlCEMwhy1+ebHX3Dkzodhw6Uann06EjeYdFUVH6OSVPJPrc95wixJPY5OiZbauosoS9ZTFbL4SgMY1W1FWO15SURYnWDo41+VSLcK7VYzVyteqNEfbvhNWLavbVADlHjh6lu+6+m7ccExNDsHtbSp06duSsV69WmVxmX1RcRPig3Q0bNtCWrVu5TX0SW95vS0EubeQm7lp5eYVS0taz5iurUthICaE9GROunmyy1Fak9l33bavTzm3Vfn3aKa/UmT3gf25IHu6+SlaREbOKUthAieKMFN4yvElatbZeux/02Ot84hAPgsvlpRp7+d9mMZt6Ta06oFN33hcmSY+t/I4th2faMhPioLbB4fzI/2i9o3QZdU+5+dTE3M0vUGmwLKd2cwFisBgjmJauXtKYJ9yYd0pj0f59+5Wu4uPilbQlifYdNG9gJSW676W5eliLkqrdPN3by8scq9VlUpCbgCwqMkIpKSktVdLXK1GuNRtggY+aoJm2M+LrreaxJn3pcjl3HUSdG+N02qGlbaA+CAuCbE3wLICPOahrxKAazXdR5RWVNb5ZKD/1pDKmmKHjlbQlCbgdioVBB5d8Rps/ncknZeERAgFvSGJi8QrzXjGkjkMmGGbZ5Bw+5OzpotdWh97DlPNyZhoyRZdZqAtQYMduplioTBvgKpS5ahoz7ZisWI+CoqJCZlrVmNe6xsdZ1ZLwH8/IsHz9QUpqCu+jLjZ5c4Oza0E+5f57aPCggeTu7q6HUXR0FI0YMVzJS0o6q6SvVyK/OJ133blDf0KgLRDc5Yb3ZcF7tBETeaYN/mw5+ANvBYuBhvV+gGuGolknR1caO/gZCg/uKrL0jphYBcGnO5a5VjoYex3Xq2Hdyf7ElbxC+5B4io3QeS/4e4fRwB538jK4M5azVa6NTTCBiJWXcSyAExYGqQmTdbEj76Shz/xHnc3MJzEUz9z3QJnH99L5A5u5h8bhZf/leRDwEPRqEp4m7ZnLHoS9oIh+N1Noz5oPOVFenyNs2DdMfkJpAqsvQ3vexM+zTh6o4VmjMLJEqXb1pw+b5G2vEv5qnkO/fslPHZxdFK8ddbkvW00Kb57w3kPV2VzoO7PVs+JDbLNyUBvWjsjDnIIpOnlSMz+G2CmWEvzHhSvh8uW2WQxlad/G+GoaGo1xtdA8OPJ37x7PP3DJw6QnFgSp4wQfPHSYxCrP6wkDVnr2ih3Nher9o2dRCfPjdmztzJefY4JLeJrYYoxHTq9nEQxHUDBbnn8jW/3ZM/ZWKmBL2du0cSY/NhmKvk4mG5+EO5t2gC5fvci9SyYMeZ5rlWKyden6d/TcFjsEd6NRAx9Xhuyu1eKx6OexSZ8p+RdyTtGq7Z/z84OJq6lf3O38uicM/X90Ewv/W8Xs+vCJF7Rp/7ci2ejHvT98RLfMmMtd8bAwCD7cELoQJPBGAXYIKCUI9uwhT73NT2FO2fv9bFFEybv+Yv7gAyiwc08u6HOSjjF7+Rlefm7bauo6ZgoX4uNZuNjyvEzCak94qaB94eGhNGajRCRbyh/aYxBfPIQFOiB8/44uX2i2hyPLF9AtL3/GfdT7MF/73vc9ywQ/e3Cd2EN7vv2A18VDEP7t8CfH4qNxs35gi6fyefsIcyCuKTvpiF5fQQyfgY/WfGuBO+jYN7/mvHDT/H3GPXr1xMl8FrZ27tx55MbCWN922220du1aUWTy+PfnnuNlMJdYE0u8Qvtm4uhoZL7BZG+1F9i1Ro5Vm1XMHgmC8MbMtRDiWAy0afNW2r17b+0o1odDa9esxrfaDGH5+Pq9uh8LFhHBdXDnkV/o2NnNvCYeRmq6Rtf4qaEnAzJhpjBFKPt+9WuERUSoC5c/CHUs9IEgwirUPBMRCiHEv1s5k+CfjZWX4IdgxsfRQDt3Ye5+WFkpPsK1EOMSeTgizosgeJ0sWP6ssoiIl2uFOB5uiGOeU5Aq2DVHM9fKkFDx6uOnKrA4WZ6fQ6vfepjyziXwOhDgnoGh5OzhxbGA77VY1QmG/mzxDoQ5cN7233/V8Avf9c17ij/6TX97SzFtYEIwhcVJEeTOXPIgxPEw2DD7BZHN1kNozAbIUL4HwmNJ+31R8jlTK17XGGR4sIiHkhDicGHc9MkMtoDJvH28NDuduVe+xn3l0R++F5hLUL9NoOMDiz+l/T/O4Q8jlGM1LOLIQIijHuK75CYd52MUf4yNVZRZcjyw/4ASuvaxx3WKham63t4+JBYSrVjxhyk2o/lpaWk8H4IcWr2tqFVEZIz6m2yrdptVO1gMhNckV+Y7fvHSJTYDXUhlZWUWX0NX7SRJwgn9L5jFDVjBiGBRAT7tuetYVv453Y/TijasZYWZBG6JEMyFbNOH62G2MDZmCP5A3wiu/eYVptXLB9xY+/XNw4SnV7tI8gwIoUsVpcy8kGHSJ7yufeFB4dO+EwuA5cgeHolMkJfUtSmT9eABg4fNyXU/U8LaH5lgDeTmoBK2sMjSjRtMNm6mwKWtD3mzhVMObRxZCIEcbp4xDBtgprpVRf369aM5n37K60x98EGCW6IpeuONN2jM2LGERUQjR4xgv0Xdw9JUHZHfrl07Wvbrr+xBpnlglrL5t/LyMrp94u2CpU5HuzatCMSKi0vYLh+2/wGI9m15xGRierbGpmfLds21hYiCxqIKmqvTGGXQ/tNzdBOMjdGnNX1gcwWYQoQ5xJq6lvLCdGOLGCeW9gc+CFV8GpousqiHiBjZGLRnzx6CZh7HJjzHjRtPH3+sM3EZ9h/PNGkI8c/mfGqVEEc7Fy5coNkffcR8yp/kK8lh3rUmVovhWMS5FOQCCXmUCEgE7BqBp59+yqLrv5ttC1cf+uWXXwgfkBdzQ1SHBqlru1KQ1xU5WU8iIBGQCNQTAez3ac2en6a6k4LcFDIyXyIgEeAIpB3cxkPIFqj85CU0TQsBKcib1v2Qo5EINDkEDv0yv8mNSQ5IHwG7dj/Uh0KeSQQkAhKB5omAFOTN877JUUsEJAISAQUBKcgVKGRCIiARkAg0TwSkIG+e902OWiJgMwQQlkK9qtlUw+BxZHt5Smp6CEhB3vTuiRxRM0YAIR4Qs8Pw01QvCcvNt27bxj99++oH+VKPGYHlwLdt+zbqyTZikNS0EJBeK0buR8eYaLYs2IGHtzxz5qwRDpklETCOwKRJd9Bjjz5co/DRx56gtLT0Gvn1yUC8jtGjb6MusZ35LjQVLIZ+cnIKrVq9mrKyLAvjO+vfs3h8oZKSEsLqRlNUzoI9nTp5ijqzvt5mO9xMmNAwoXJN9S/zzSMgBbkBPoiGiNC2IASPkoLcACB5ahaB/Lw8JU5PGxYjxMVFs6WbCMZmtrIVhc888xSNHTNaCfImqvbt24fuumsy/bVuPVtm/onINnqMjIqkvn00WviSJYuN8qgzP/1sDo8SGBgUxGONrF61Sl0s09cRAWlaUYGPzVQHDuivypFJiYB1CGzavIUm33kP/7w8Y6Z1la3g7sZigoiHAzYPh8IhAr0hINOto26hBx+YYrbFZ55+hpcjfPO333xrlheFiEWCzYNBjzzyCD/KP00DASnIVfdh1KiR/MdhGA5WxSKTEoEmgUARW9p96PBheujhx9iek/fS08/8nT88XnjxZWV89957t5I2TGCCs1//ATx708aNPBa/IY+x8++/+45nh4aGUvv2uvDCxnhlXuMhIE0rWqwjIyMolIWYRKD4c8zOGNu5U+PdhRbUU4cO7Wnw4EEUx3YYh2nqxIkEWvvnnzw0sPoyb7ihJ0VGRNDlK5dp5crV6iKe9vHxoeHDhvL0vv379ezLLizc8G23jaLOnTtTYGAAlZeV00lmv921eze3EasbQ1CikWy3p2JmA4add8L4cZTHtMrFi5eyCHaVNGXK/RQeFsbizu+hX3/T7fQC+/P4cWN5U3/+tY46depII9gOMkFBgXTs2HFCXk6ObSMAYvuvYeyae/ToTqGh7Qjx8jGuXbt2qy+Jp2fMeLVGHjJOnDjBI+whXCqEta+vTw3swde7d29WrtlXdNGPPyLLIlq6dCk99/zzPAzr2HHjaP68eRbVk0wNi4AU5AxffOFvHjmcI71h42aCMJJkPQJ/f/YZGjt2tF7FPn160wMP3E8ffjibbdSxRSnDfodPPPEYP28fHk7z5mu2NRMMn/zfbAoODmIbI1TT7j26zT0wuff8c88KNuXYr9+NNG3ag/yh8Nnnc5X87t3ilX6UTJYYOmQI00KvKJHnIDx9/XxpwYKFnC0gIECp179/Py5cRX3w3n//vfTmm2/Tnr22CbMaGRlBH7z/HouL7ym6ofi4OLrt1lFsB/bT9PKMV3joVKXQTOL06SSCIAeZ2ommR88blBaSzMTeVpi0CdwPhHCFGTI2VrPloCGPPG98BKRphWE+bOhN/AsPDQuz/pKsR+Cfr72iCHEEy9+6dRvXJrHTEjTNGTP+ofeAXL16De3T7mA+ceIEPUH57LNPcyGOUXz62VyuYYoRQVMH4c0pMfEkrWOTepvZA6KwsJDnjxs3hv72pG5fSZ6p/QMb8vnzmh1aMAmJ8KEpKSlMMGm2Xrvl5pFqdiUNwQ07MoT2wYOH+MMF9um33vqXnuBVKliZwDXNm/sZbwtvMQkJify6UlNTeUud2dvhu+/OsrhVvD2AgH12tvG3hi5dNEIYOFqzMQLaFVi3bx+OU0lNAAG718jxqowvPn5Af63b0ARuSfMbQnh4GDenYOQwcfy/F17iwg7n0DAX/7SIC/N/vvYqPfb4k8jm9C+m0f700w/k1bYtvf3Wm3Tf/Q9Qp44dadzYMbwcgnPNmrVabs3h0KFDVFRURHgQGNLy337hmuKoUTfT/C/0NXzwPvzI4zxkqOBDkP8nnnyamRl60bvMDQ9mGGMELfTJvz2tmHe6d+9GH37wHjcvPPnE4/QBe9uoD+EhiAcDvoMvvjSDm0dEey+88DyfuISpKo5p6DCdmCOYo4Q2jv1mTVGHDh14UZH2AWiKz1h+xoUM3oefn2bPTmM8Mq9xEbB7jXw0s7WCjh8/QZj9l2Q9AtOnTeVCDQJvxsxXFSGOloDpzp27eKNhYaF6jUMTfPHFf3B+aMj/9/GHTMt9g/NAWL/1Vk0tFFq4MSGOSnu0JhjY0A0JYxNxn8VuUMLXOikpibPD20N4gqjrHz12TBHiyD969JjylnDjjRr3PTW/NWn0F888UECbNm2uIai/+OJLLuBRfuutt+BgkvCG8eKL/4+X4y3jnXfeNcnr6+vLy7JyLPM3VzeUqn1rlSs91ahc37Rda+T9+vXlK/DwCrpj5+7reyeace/h2ldsCKWfl/5U40owBwFCOeYfUlPPKzxpaenMN3k+wZwSwSY/QRC68L4w9coPLR/mk65MS0Va2IFhwgEZE8ZoUxDMCSDYekHlbCGNIGy7JQS+yNu374BIKkc8UKD5YgVnfSg6KkqpjolOTBQbktjfMSY62rBIOce1z5/3GccCmv3bs97h5ieFwSAh8HCqw5J7J2dnpTX15s5Kpkw0OgJ2K8jxg+3FPCdAGzdt0dMiG/0uNPMO/bTaHS4DWpo58vDQTeYJvpWrVtMdd9xOQmNfuXIVZWRkiGK9441sGTm0dkNhDeElBJ5eBe0JygUJ4YMHOEj9wBAPBcGLY3ZWlvqUpwu0JgkIUHzUbdRgNpMhbNVgwTWZw8/Y2ETTn7PFOoGBgfz0i/9+SQcOHBRFRo85zHYeERmh1DHKZCKzQ4TGLFNZUVnn6zbRtMyuIwJ2K8hDQoKVH/6I4UOZa5nG1Q04Cg0SguGxRx/i0H73/SK6dEmjydUR6xZbDROBoMzMLJr+0CNWX6dwtxMVR7HFLN98+z13FxR54via1p4Mwfk9uyermQ1daNB3Tp5Ejz1We/8qmS6aNXs0JkDVDw31Q8JsQ0YKyyt0bwNwKTx85IgRLvNZH7z/H4piqzRBS5f+QsuX/2G+AitNTknmgrwtm5+wlkJCNB4xObnGJ1KtbU/y1x8Bu7eRA0L8UNUf9Y9U5LdurXltrz/kLa8F4U/t4eFu9cUhGNPbzPsDmFdWVmrt5S5sp/EParQVw2LgiCXvn376Of20eIkixMEsJvCQNtTYkVdXwuIXQwpmy9RBeIgJM4UhT3WVzpxj7E0E/OrJy3bMd9xaeuON1xSPH/i2f7Xwa4uaSEhI4HxQWozNKZhrxMdbMykMjx9JTQMBuxXkcDNc9utyox/hogZNS/BAyEgyjkBSkiawGMxVsSyokjX08ewPuCAB1s89/yIt/PobXj0yMoIeNQg+pfYqEcvRObP2z+DBA9WnNksPGXJTjbbwFgGCq6UpSktPV4pMjQ0TruJBMHHCOIXfksT/+3/P0aCBmmvesXNnrbFV1G0ePKCz+1sTzRD+4yKUbaL2YaBuV6avDwJ2K8hhH4WPrbFPGVsBKEiUi3N5rInAgq8WKku8//3O2wTNWU2YFHzzX6/T6/98VZ3NF9yICc6vv/6WTYKm0s8/L+P+4WC8687J1LNHD6UOXBsFPfjgFG6bxjm0b7gP1nfiUbRteIS/9BgWoEoQFh7hoQVawez5pgiTqWJiddQtN3M3R2O8q1drXCyBBSZ91YRrmzBhPH3/3deKbz3KH33kIb5YCOlz55Lpyy8X8HIsolJ/xAQw+NSENwGhnDz0kMZ8qC43lX7qqad4ER68y1UrYU3xy/zGQcBubeSNA6999FLB7Lz/W/AV9ySBC9zczz/lAZwwp+Du7qa8uqtfxbFEfxKb4ARh5eKSpT8rYM185TVasvhHbkaZNQv+5Q/y9rDEHm9LEKwQeitXLOdBnLCgBiYCaLa2NKkoA2KJ5/7+DD3y8HTevnhgVFZeZH7wS9RsNdJY9n/vPXfzxUd42Ajt+7vvfuCmIVSYN/8L5q0ykLy9vbkPPVZzIqysA7smT4anuCZow4JGMR5BsI9/+41mRarIE8dP5nxWwxdflP25di3dfscd1J09LPG2I+YaRLmx47jx43n2qVOnqKi4yBiLzLsOCNitRm4Wa6ZtSLIOAUyw/ePlmYqpAQLdjy15F/ZXxDpZv2EjbxSCCXZxEPydsfxcTdBkX/vn69x/Gl4c/1GtagSv8GhBO1hKDyGOxT2ffT5PaUYIzCqt2yE0SEGGZSJfc9TxifwlS37mAhjXJIR4Xl4+C1j1qCKYBa/hEW8ai5csZdqvxtURY8bH2Vnn3YOJ2/unTKUtW7bya8b1wM8bC6XAi/EmnTmjRB5EH9e012XYn+F5NWvbFH3BHiBoG/MTTz+jiYRoihf545kQFw+TOXPmmGOVZY2MQKuIyJia39xGHkRz765rXDy/hIQTx5v7pdhk/BB4PZkN2dfPj7vunU46oyzrtkkHrBH4o8eyoFkXL13iC4GET7it2oc56OuF/+PN4QGFRUAw84S0C+GufWKC11b9qduJjo4iuCVeuXyFUpi5KYnhJx4+aj5bpGfOnMm18isseNnQIUPN9rP89+XMbBPCVu+epOnTptmie9mGjRCQphUbASmb0SGAicjtO3bqMhoghUVF6oVFDdBFjSbhGlgX98AaDdWScfbsOcKnMeijjz6iIUOH8jcNbPVmapcgT/Z24OXlTfAdf/UV/Teoxhin7MM8AlKQm8dHlkoEWjQCcJ8cM1o3kWvqYkuZaWz4sGGmimX+dUZA2siv8w2Q3UsEJAISgfoiIDXy+iIo67dIBMrKSrk3DS4uNze3RV6jvKiWg4Cc7LTBvZSTnTYAUTYhEZAI1BkBaVqpM3SyokRAIiARaBoISNNK07gPchQSAYmACQREREixStYEW5POxtoArAnAmoG6Rso0d4FSIzeHjiyTCFiJAH6sWDRk+LGymQZjd3BoxRb1tNH7ODs33YBwN99yC23dto02b9mihGRoMHAasOH333+fX8eiRT82SC92rZEjsmF0dKRZYJOTU1n42ktmeWShREAgMGnSHSz08cPiVDk++tgTersMKQWNnJg1oxd16eSt1+uVq9V096Ob9PKaysmMl1/mQ9m3b59Fmuy7Y2NpSIwfrzN54X7KLq39t8sWtlKvUG9ydWpNpRev0pELJbVefluXNrT6iX6cb29qEb2w3PwWfHPnzqNBgwfz0MFw49y0eXOtfVjDYNeC3JuF4xwxfJhZvFZWrFE27DXLKAslAgyB/Lw8HhcGYLRp48jjxSANTb0pUEZWBYWHasINuzBh1IZp6E2VEMwLC5FAH38826JhtnHQ4dy6lkvDpd/Zsx093C+c3J01orC48iqN/XJPrX21hvTXknZjKnFq9Hju3FlCNMzwsDB6ma2mlYLcKEz1z4TWXV1dM1qB2GG9/j3IFuwBgU2bt7Af6RZ+qZ07d6JP5/xfk7rsuQsTCR/QYw90ojE3hzep8akHc+999/LT1JRUwseWND4+mJ4bEkEujo1nVvrvF1+wfVTfIQR5wypavGXYiuxaI1eD+NPinwlR/CRJBCQC1x+BG3r14iEBMJJ58+bafEAT4oIUIX40s4QCPZwo2LPmpt227Hj9unX0CgtvgM1Unvzb36QgtyW4si3bI4CAT/3Y7vKdOnXikQnT0tLpjxUrTMZGQfzyITfdxOOYI078cRYre/36jUYDbcXFxVHnTh0pk+2juXfvPhrQvx9h4wcvZiZLTEikRT8uJrEXp+GVwbwxYcI4imdt+LGAXnhwo50/1/7Fowsa8ovz/qyPvn36UHh4GOUXFPAAWn+x3Xhs7X2A2OHYgFlsfZeenkG7d++hXbuaxsbgUR08aVDfIIqK8GQYV1FCUhFt3p5FRSWXBVQ1jl06etPQAcHUPsydTp0poY07LjDcrlFXll9SfoX2HjS+2Grs2LG8LYQQ2MImOm1NFaxd2LbnbD1HqQWV9Omk+AYX5LiG3bt20cibb2a/jY42vSSpkdsUTvtuDJ4ab735BnXv3k0PCAimcePG0KpVa+jTzz7XK3v2mad5mToTgvOh6dPoww9nK2YKUT5t6gNc0CGMbPlD5dShfXtRxKMTjhs3lqZOe7jG2xX2pvz+u28Um7VSiSXGszr/W7CQfvllmTqbh+D96KP3qWNMjF4+5lUefmg6vfSPl00+nPQqWHASGRlBCjwvDwAAQABJREFUH7z/HrVt66lw44GD2OSI147wvbaO8Kh0ZEHiyamxdOsI/S3v+t4QQA9MjqE5X56gbXuya7Qy/d6ONPE23f3BJOvE0e3pbEoJxUS2ZU4EVXTvE5tr1ENGxxiNoDO3A5PRihZmPrfM/OSkhc1YzZaUlMQFOXZZQohnW91T3cyA1UNqWRXunHw732gZggJbbnXqqP/jbVlX2zBX8+V/5ylCvKioiGuS27Zt57HC0WNoWDu9ju+79x5FiGMuAprnocOHeShVaKczZ75MxvbLRCP+/n5ciCMO+ZEjR5Xwq9i559FHHtbrByczZ/xDEeLYnGLduvWkHpsr+1EZ0n/efUcR4limv3XrNh5SFnwQuHM+sY39GzbTeXM/420ibnoCe7PA+LBjEgi29ndVMdl5ZiP+uXNchCLEL16q5lr00YQCPqcEd8YX/hZP7YLd9EY0fHCIIsQhsKF5HztZyHkgxGuj4HbBnCWH7eJlDV1kbwqCrhqZ8xJl9T1Wq+LbX7pSc27NVPvqPVqt2WLPVHsiX2rkWiQQQxsEl0TsahPKNsLt1i2efmMbJjRULGht1y3igN1+sMkDaPv2HTTrnXf1rmvgwAEU0aGDkgczx71MkINg4njgwemEHYBAMM3838cf8Q0PXnzxeXrhhX/wfMM/Gzdtpvff/5BnQ/AvWbyIb8E2cGB/Pc0fZb179+J8Bw4cpFdfe12vKZhMqlQbJaMQeV27duF82GLuuedfUOo8+MAUeuCB+5kvtgvdffedfOd6pbAOiX++9gr3aoEQf/GlGXobMr/wwvN066hbKK5rV4JZSS0I6tCV1VVaM9ePyeMjeb1K5tHx6As7qIIdQZ1jvOg/r/Vh94nomUe60Kv/PsDz8efBOzWK0OUr1fTkP3Yq5pdhA9kk4+NxCp+phKeH5s0kJTXFFIvR/DfWnCJ8GppKmJvi4Dk7rO5GbHqNit179GSmM9uYzexaI4eAhg0Or65bmea4ceNmZv88rvyog4ICadCgAVbfLHusMHnyJH7Z0Kz//e57NSDYuXMX/fjTYiUfNkIXF2d+/ivbBFsIcWQkJp6kM2fP8jJsHmGMIPTmsG3MBMFevW/ffn6KySQ14aEhdggytjoQNnxo9mqaMH6ccvrR7I+VNBLf/7BI2YvzFmbvrA9hbPHxGsG2iT2YDAX1F198qYz91ltvqU9XdaobE+lJLs4aMfHHn2mKEEdjp84U07lUjc91pygvpX1PD0fy8Xbi55u2ZSpCHBmbd2ZRaZnmQaBUMEiEhLRT3DXPar8HBizN9hTf86tXNW8NXazcqNzcRdu1Rp6fX0Bf/m+hPj5MqO9lAmHa1ClcO+/GfmS7du1RNhfWZ5ZnAgEvL83r8pGjOjOHKDN2jIqKUrI3bNykpEUCQhm2aWjT+BhOLGLjYEP7Yla2xk6L5dBqwuRnCnNfi4yMoAED+tN/v5hLO5kZZwfb/OLMGc0DQ82PtDDpQPBD0BsSzDOYpMU+m/WhaBUOmOgcPHhQjeawFRsoJjq6RllDZ0SE62z2EMKGdPBYPkVHtGX3qBX/YCIzsr3m7Ra8uw/WNI2cTy+juFjTuFWqvMdcnF0Mu2z253jLAWF3K1uRXWvkpkDEjxfCW1CAv79IyqMRBCBoYZICZV7INMJRM0s9SZmtFcBqrpycXOU0MjJCSYtEBdupxpAMhb26HJtDC8EfERFB9zMfZWwS/cvPixU7vZrfP0BzzyvZ/qHGCHMAIJjh6kMwIwmCdo64IoYfUS4wFueNcQxvp3u7ycmriXlunk4YdQjTCHBxxPgys2u69JaWm/ZyQR1s6ow3ZVA0e1i2JMJerLjPILWZpb7XqK+61Le1FlRfaHe4JPyo4aYmyTgCagHq5KQR6MY5dbkXL+kEpDGNWy20jAltXUuWpWAbv2PSXXTfffewvSlvYjbwcP6DwuQoPGewi/yiRT8pjWG/TJCD9kenFGgTDm00C0nU127IY8l5uUr7nDHj1UbZSs6ScQmeS5c1ZgCcQ+s2XDTn6KjTBSsqNbxq04m7G74PunuNdtSrL3FujIqLi7mLaBibq2hJ1K1bN+VyDh86pKTrm9Ddhfq21MLqi93CcVlCk2thl2jTyxErYNuzTZEtIfVKPbV2LuqGss2PBRnar0W+tUfMiUBYP/7EUzRu/O00/4v/KhPZcPNTk9hcWf09UJf7+Wrieaht++pypKtVE6ge2sk7Qx61Tbwdm2C3lmKY+enb775TPrNnz7a4CQYHJ/Gqb6wizCCC2ofqTCYir12Q7o0kK0ejfZ9LLRXFFKEys4jMAD/N3Ig4N3ZMz9CYswL9NRPoxniaY15sF80EOsZuS41cCnIT34b4uK5KyQULzQVKBTtMCMHXlX1R4bNdG506naSwTJp0u5IWCTHJbGxyUvDU5whNejnzSILrIsjfwHwmXP/wtoDFTWqC/29YmMan2tzuQYitIWjw4IEiqXfMyspWHiZwe7WWYMvvzCaExafvjTda3IQwezgwmy0W+xijMyk6oTx+VHgNln69NSYoeKcISs8sVzT3sQYhAKDBhxt5IIi64pjE5qpA7sybTJgiRFlzPnbRCnLM8dT3bU6Ng10L8tsnjmcxD3pzm6QABV8aCJHIyAiehQUJ5rQuziT/0Gefz+UoAL/58z7nft4CFuTBjW4G8+UWlJGRQUL4Y5JPvYhoypT7FFfGLVu2iip1PsJP+/PP5hBcINUE7xbhMYJXeTUt/XmZImBfeulFvYcT/MuFcPn++x/V1fTSeJMTD6JRt9ysuEDqMbGT1avX8izY7p999mm9YvQzYcJ4tpjpawoODtIrq++J8OtGO39/rCsFB+q0a9H2BRZkKzdfYxsf3D9Ib5Ly7omR5O+rmYzcoVoQBPPL/sN5vAk8IB68K4bh1YoQLvfDf/XladG+qePixYt5Ea7/vvvuN8VWr3xvV0fydXPiHxFzpQ2TiCIPR1sSlII+bIUw6OCBA7ZsmuzaRh7AbN/t2oWw5de9ucthdXWVMmkHlOGytnLlGpsC3lIbO3r0GF9OjlWZWKzzw/ffUmlpGROGVVwI4gd5+MgRvcv/7LN5NGvWm1wofvjBe1RSUsrwR6xsV86HCa958/+rV6cuJ2ivI1vg9a83/skn0YqKivnDW72K8r33PtRrGr7tELBYkQo++KhD2GO9gbDfYwn93n379OoZnvz623K69567eb13/z1LeTh8990P9NPiJZx93vwvmLfKQO4BM27sGL6as4TtWu/AvG88VRqpwMWwj7qep2WUM/fBUq6NY4Jy/gcDFE36qRk7KTtXY9v+77en6Z8v9GDzBa3onZm9qZQtrYed29VFM09wlXmq/G+RRoMWY/niu5PUI86XC+9JYzvQHWM6cH9zlFcxQY+2zFE6e5sR0QKnML/9RYt+MMdep7KVj9d8e0EUxD8e072BPfD9QUphS/htQQ8++CAPWYG2Pp/7uS2aVNqwa408Lz9fAcKBfTHFDxSZubl5PG5HodY7QWGUCZMI/OvNt7ndGQIYLnMQgHDPgxCHdrpt63a9uhCCWJwj5iDAL4QVtPVp0x+psdT+GmlW0V27pnuVF40aTsSJfLxRFRZqVhXCNREPGiHE8Xq7ZMnPNR4yqIu3jO++/4ELX1wDNHvxHdm//wCztf9NdGHy+PXX39LiJUupslIjFNEOPs7OOm0PY7h/ylQWU2QrVx4wRng3eDETFXhh2086c4byVd9X0WGVMHSLDCuPM2ftp8PHCwgxyUHQnPFp1UonGg4czaO3Zx/mS+rB4+nuqAhxaOtPvrSDXZ++b3hh0WV6nOWnX9CYWeBBCYF/5EQB7dibg2aUhwY/MfIH0QJBwALRAq8HWb5ms/bR3Xf/fZwJZrvkc8m1V7CCo1VEZIwtx2pF102DFT8auBd6eLhTK/ajKWVaYS6LKS3cnywZpdx8uSZKWEzVvXt3roGcO3dO2ZG+JqcmJyQkmLqzGX2YIg4cPMi1c1O8dc2HbTuOzX2EBAcTllhjwvU0i31hKsiW6AfCFBp9ZxYELIMtHMLbR211RN26HKOjo/jqVnjOpLAffVLSGS7M69KWresEB7pSfGcfgjfLYSaUS8s03j219ePGdiUSK0Lffa03IZgWbPRPzdhlturPy5bxGN6nTp1iazummuVtyoX9BwygTz75hA8R14HrsSXZtWkFQEJgS9dCW36lNG1lsxgZiBdiKWVmZhE+DUnQ/OGGaC1BI8bqX3wag86ePUf4NEXKyqkkfCwhuCtigRBICHFHZoQWq0ChrddGr//zn/QF08zD2IYMxtxUa6vfVMpHjx7N3zyxJN/WQhzXaPcauS1utNTIbYGibKOlIbBs4QhKY8J66+4sOse8X6DN33N7FHm3dWImJOKml7x8jcmppV17Y1+P3WvkjQ247E8iYC8IwNaOSVQRQEtcN4T4D8vOkBTiApH6H6Ugrz+GsgWJgETACAJzv0qk/n0CuSYOG3lJGYtbwzxlFi8/RxmZNZfuG2lCZlmIgBTkFgIl2SQCEgHrEFi/7QLhI6nhEdD5GDV8X7IHiYBEQCIgEWgABKRG3gCg1tbkkCFDuL906vnzzAUuhfngWuYFUFu7slwiIBGwTwSkIL8O9/31N97gO9mIro+wFY9PPP64OJVHiYBEQCJgFQIO3j6+b1pVo4UyIwZ0+/bhLPZGVx5/AwtU4LdaXFyi7NBi6tIDAgN5UW6uZsWaKT6Rj8h+WP6PWB9YKRjMFqhg9eHx48cFizxKBCQCEgGLEZB+5AwqCPAxo2/ly6ENkTvNovSt37DJMFvvvK5+5FgxuHnLFh73Y9/+ffTs08/otStPJAISAYmAJQjY/WQn9o4cN3Y0F+LQkhEYKSX1POXl5XOtGcK2oQgrBsXuOAF+AQ3VjWxXIiARaOEI2L2N/CZtnGgs1f9l2W9UUKAJroT7DnMLYrA0JF3S7pTjwKL+SZIISAQkAnVBwK6lB4ITOTtrditZsWK1nhAHmAjgVFBwuS64yjoSAYmARKDREGg4u0GjXULdO4rrqtl2qby84roHzhIPlLpfjawpEZAI2CsCdq2RC7MJ9oTUeKzEsRCnQUwTv0L5BQW0a9duFsdas1t6Q31BiotKeNMIpYuQutaEz22oMcl2JQISgeaFgF1r5GITAy9vLz7hGcE2DoZm7OnpQUjfe89dFBvbuUHv6PETGpdDbMQwbfq0Bu1LNi4RkAi0TATsWpCL3V4CAwK4h8qevfvot9/+oG3bd/Kt3yBchw65SdkVpiG+Al/+979KfOLHHnucNm3aTL///ju98847DdGdbFMiIBFogQjYtSBX38/du/eyTQcOcVv5sWPHafWatbwYW8D16NFNzWrTNLb5+vyzz+jsubO8XVc3VwpiC4Tiu8XbtB/ZmERAItByEbBrGzns0XAxBJ1iC3/UlJaWzu3VsFv7+fmpi2ya7tG9B9sbUrMRa2VFJdvzch7fSszY/ow27Vg2JhGQCLQYBOxakF+6dIkLchyxa7ohYWsw7JqOTXAbiu5nO4QLev655+jIUf2d5kWZPEoEJAISAVMI2LVppVwrvKGVG1vBCW0cBEHfUBQSEsKbRgREKcQbCmXZrkSgZSNg14I8KUljl8akZnh4mN6dxo7r+IAKCnWrPfWYbHCC7bBAefn5NmhNNiERkAjYIwJ2LcgTE08qkQ3797uR+3HjSwDt/NZRNyvfh6SkM0paJiQCEgGJQFNDwK5t5JjsPHjwMPXufQOb0PSlRx6eTmVlZTy+CkLYgtLTMygrK7vB7pubmyaWyzUWQEuSREAiIBGoCwJ2LcgBGHzHMak5YEA/Fn+8NXl56SY2E5jGvnXr9rrgalEdLy8vCgwM4rxYXSpJIiARkAjUBQG7F+QA7cjRY/wDwRoQ4M+18tzcPLYoqKoumNZaZ/78+RQdE8N3CYJ9HrR2zZpa60kGiYBEQCJgDAEpyFWoIBY5Pg1NMR07Klu94W3gj9//oLVrNQuQGrpv2b5EQCLQ8hCQgvw63NMp99/He83Jyb0OvcsuJQISgZaGgBTk1+GOSgF+HUCXXUoEWjACdu1+2ILvq7w0iYBEwI4QkILcjm62vFSJgESgZSIgBXnLvK/yqiQCEgE7QkAKcju62fJSJQISgZaJgBTkLfO+yquSCEgE7AgBu/ZaiYqKZGFsHWu93fAyKShouMBZtQ5AMkgEJAISATMI2LUgv+XmkXxZvhl8eNHxEwkNulS/tv5luURAIiARMIeAXQvykpJiFqrW1Sg+iFGO2Cug1NTzRnlkpkRAIiARaAoI2LUg/2nxzybvwfhxY3iMckRIlILcJEyyQCIgEWgCCMjJTiM3wdHRkcLCQnnJaYO9PI2wyyyJgERAInBdEZCC3Aj83brFkYhKeOiQ3EPTCEQySyIgEWhCCEhBbuRmdIuP57nFxSVUXFJihENmSQQkAhKBpoOAFOQG9yIwIIDc3d147rFjxw1K5alEQCIgEWh6CEhBbnBPerFt30DXrl0j7BAkSSIgEZAINHUEpCBX3SHs0xnRoT3PSUtLJ3isSJIISAQkAk0dASnIVXeoa9cu1Lq1BpJDh+UkpwoamZQISASaMAJSkKtuTo/umknOy5cvU0aG3AxZBY1MSgQkAk0YASnItTfH19eH2rZty88SE0814VsmhyYRkAhIBPQRkIJci0fvXppJTpwePnJUHyV5JhGQCEgEmjACUpCzmwO7eFRUFL9N+fkFVF5e3oRvmRyaREAiIBHQR0AKcoZHp04dlQBZR6XvuP43RJ5JBCQCTR4BKcjZLerOluSDqqur6dSp0zwt/0gEJAISgeaCgF1HPxQ3aenPv4qkPEoEJAISgWaHgNTIm90tkwOWCEgEJAL6CEhBro+HPJMISAQkAs0OASnIm90tkwOWCEgEJAL6CEhBro+HPJMISAQkAs0OASnIm90tkwOWCEgEJAL6CEhBro+HPJMISAQkAs0OAel+2OxumRywREAi0BAIIIw1PlVVVfxjqg9HRye2FSQRguvVlZycnPhq8rDwcHJ2dqZVK1fWtSleTwryesEnK0sEJAKmEHBwcq5RVH31Cl1jC++aIv3+xwry9/ejlUyovjNrlskhrly1gry8vOnnpUtp9uzZJvlMFcycOZMmTJyohMwGnxTkptCyIh9P4S5dOpO/nz+5ubnyfTozM7Po3LlkK1qpO2t0WG8a2us+8m4bQm0cnHhD+xNX0ca939S90WZYs1vMcLql/6NUVJJJC/94qRlegRyyQKCNixtN+Pcicaocj/6+kM5sXaGc2yoREBNPATHdyTOgHW+yOPs8ZSXsp6L0cxZ1ceddd3Ehjp3Bvpg/z2ydZct+o4cffogm33knLViwgIqLi83yqwvj4uLo9jvu4FlXrlyh5ORkKigoULPUKW33GnlkRASNGjWSv1KpEezRvRsPnvXrb79TaWmZusim6bDAWJo8cqbS5rVrGm2luqp57k4UHzOMuseMpAu5p2jzgR+U67Ik4ejowh9kLs5elrBLniaMwLXqKqosLlRG6Orlw9OtiNkkbEiBnXtS/2kvUxtnV71WQ2kQdb31PspNOko7v/o3VV0xbwZ5+umnef2EhATKy8vXa8vw5OuFC2nq1KnUpo0Dvf766/TSS5YrHUOHDVWamzRpEuXm5Cjn9UnYtSD39PSg2267hdm7NF+uwsJCysrO4du9ubq6sk2Y3en2iRPo+x9+rA/GZuv2jRvPy8sqimjpulmUV3TeLH9TL/T3bk9hQbFMIFv/1aq8WELAIb84ralfphxfLQhUXb5Ea95+WOGa+P4ScmijedtUMm2Q8G4XqQjxy+WlVJqbTo6uHtQ2KJy3HtCxO/WfPoN2/M+0qWTsuHGE3zvo00/m8KO5P1fYQ2Hbtq00fPhw6j9gIMFmjjxLKDxMMy7Y120lxNGv9b82S0bbTHiwtZsQ4jt27qIjR44pI584YRyFhrYjCHtsOlFQoNMuFCYbJHy9wngrJ1N3NHshXl84EpN3ED6SJAKWInD1UiUVpJ6mo79/xY+inpN7Wxo143NycvekoNhe5O4fQuV5maJY7zh9+nR+npObS0eOHtErM3XyySefcEEOrXzqtAfpqwVfmWLVy2+l3UrS1vsB27UgDwwIUEA23BXoREIiF+RgCAoKspkgx4MjKrQX8Wlv1raHqzcfg6uTB0WH9+Fp/CkqucA00wvKeYh/DDk7ubO8DCotz1PykfBp2468PAKorLKI8gpTlTJfr1BWxr7AFYWUXZBMwX5RFNGuB7m5tKWsvDOUwISmMOUolQwS6DfIL5KgaV+9eolyi9Lo9PndTAO5pHAG+0WTu5vm1dlf+2ByY9elvh4wp2WdoMtXKpV6SHi6+7MxBuvlXb5cSVn5Z/XyDE+ARYfgeAryjyKH1o6Uy64b7ZcYYIN6ri4e1C4glnkiXKGUC0fIxzOI4dCT/H3CKb8onRJTdhLeBmxJjsxGHNK1D/lEdCYXT28qOJ9EWSf2UWlOhl43bj6B5B/VleddOLGXrl6s0CvHSVjPwdSaveGU5mZQIWtHIfZdCojpRoFM63T3C+LZhWlnKT85QU+oCX7RTmFaEkUNGk0Ojs6UvPsvKkw7Q1EDbiVor8WZKXR6w6+kNu2FdOlNjm6eVJBykqqvVVFYj8Hk06ETFWWco8yje6iE2aNtTT7tO7Jriyef8I50qaSQ8pITKePozhoTped2riV8DOlyeQmd27WWYm++ixcFRMeZFOShoaGcZ/PGTYbNmDzPzsqi3Nw8CgjwpyFDhlosyE02WM8Cuxbk6WxfzvBwjUbs5OSo507k4qKbcc/MNP4krwv2Dq3b6NnERRtx0UMJH0GHTv1J63YvEKc07qZnucDedvAn2nVMP1pj/263EyYKIaSWrntHqdOr863Uq8toSs8+SeUXi6lzh35KGRL94ifSd6teoatMwBmSp5svTRj6IoUGdjIsojHXnqLvV72qCNtb+j1CIQEd9fjaMgE9ecQMvbxFa16jjJzTenk9O91MA7pP1suDeWXez4/p5alPQgO70F23vEpObVzU2Tz91+4v6fCpdXr57fw787HgobVuzwIa1f9xvfIhvaew65nJhLq+kNVjsuIkOK4v9Zv6kp4pIbT7QOo2bhol/PkTnfxrqdIaJtd63fMsE9StmQA+SVs+f0UpQyJuzAPUeaQGnz3fvE+FpBHkjq7uNPat73g9dQUIa1DO6SO066t3qeqq7pX/xgdf5GXAoVUrzRKSDjeOYAL6NPlFxvKy0O4DKCC6G22b/zo/x5++rB5s0LA3+zPhKuqGdutPcbfdT8dWfEtJm5cr/PVJwNMFNm9o0WqKGjyGKoum0Za5r1JFQa66yGQa4xWCHA9CYxQWFqZ4jyQmJhhjMZmXlZXJBXlISIhJHsMCF5ea31lDnrqca+5mXWq2gDqJiSeVq7ixb1/FzAIfzx7du/OyyspKKioqVvjqm4BGs/f477TvxB/8c7VK80PLzE1S8lB2Jm1/fbtS6sNmDSF+Nv0gHUxcQ5evXuRl/j4dqDsTpIYEAfnIHXMUIZ50fi9tPbiIjzunIJX/kN1ddBOSh0+vU8aexzR20KXLFUqeuNbispo/wPNMi4bgxScrv3YPAw83b5oy+m0uxIEdvHt2HV2maOIQ0p3a6z+wxPVBAKEcY8SYCkuzeBGud1jvqYKtXkcIoIEPv8qFOITo+X0buZeGED6YgIvop8O8siiX9i3SuLBBmHYafofSv18Eu29aIZ6ydwNlHNutlEEwQfhXV1VT7pnjdG77ajq18VfKT0nkPIGdetDgv72p8KsTcP+DR4cQ6Oi3PD+bSjI1b3PQhB2Y3deQoLEDwwvH9nAt+HKFxgmg2/hpNQSvYV1Lz0e++LHSFt4+krb8ThmHNW+Ort7+NOL5j0iYJ2prE+MVlJV4UCT1jr376N6Cjx3TmVb1mEycpKSk8BJPT08THDWzu3bVvH1ZalOv2YLxHOOPKeO8LS734sWLtH37Tho4sD/FxnZiOwXFcA8VL6+2/FqhLW3avNWm143NK9TeHJ0jB1FbNz/2er+D9iessmlf6sa2HvyRdh/7jWdt3P8NTR/3ATMtdKD4qCFcuKt5h/S+X9F2F//1Fp3PPK4rZp4oXVmd4op8Je/YGd0r6TXmleDvHU6FzDS0af/3Co+pRGrmMcIHhLcHmH/M0eAe9/BiCKGvf3+BCeNsfr77+G80ffxHzGwSTMP7TGXmnz1Gm8G1LGGTyqiP8Y24cTr16TKWosN68Qc57nmdiZk6+t7/HK9+sbSQ1r33DF3RmkrgdjfihdnkHRpFPW5/lFKZgBf+1BlHdnKB377vCIob+wBlnz5MZbmZNOjxN3hbeAgc+lnfJe7qxUpmF15IyTv/1NO6UaEfm9yDtuwX0YWc3DxICFzeGPuDtlL3bVL48DD4890nefHtHyzjDwjvsBhuohF1xBFvBeKBcmLV93Tb6/8jmJG6jZtK2SeNC0tRt7Zjh77DycO/HWc7vOxL9rBYo1Tx3dqJhv39fWbzbkudh0+ikxt+UcqMJcAnHooVhTmEjzGKj4/n2bjv6enpxlhM5p06dYrGjx/PvzfQ7Gurf0OvXsoG7ynJKSbbrUuBXWvkAOwk2xHo7Llkjh327hRCHBkrVq6mlBSdzZkzNcM/EFr7TqxQRo6HyYnk7fzcw81fyReJG5hJBnT0zEZ9Ia5lSDi3Vc8Wr81ulENslMZ0cOLsVkWIo2PY7HccWsLH4OUZSPgYoy3szQJ4CDpxdotIkquz5gGuZFiZgBYMAQLa+91HihAXzcAEAYL5wCc8RmTz44Glc7mwgcZ70xNv0eDH/8XNGRCyW+a+pgh9UQnaPvyx1aYTUXZuu04hcPOtiUOxVvMuy9XMwVwq071xXr2o0bKdPWpqmXg4CSGOvvCQOqvtq21IB/YAqJ9eKMwgJdlpekIcfWFCsyxPM97QHgORZZYGPfpPPh7ca3MeK9FR0bwdKHXWUiJzVRTUiwlpY/TIo4/Q8t+X07r162n+/PmcJT8/n9588y1j7HXOqx/yde62aVR0c3Oj++69iy+RxRMZQruMbbyMSdCgoECaMH4sF/J//qlvc20ao7d8FEXMhFBVfVWvQml5AT93cXbTy/dgk5bCBppwbpte2fU+wbiEXTw182iN4aRm6d4cvN2DqLi0phaGSVE1lbGJYEGYFK1gcwl1JZ8wjVBA/YFMkJgjvw6xehOS0M63zn2dRr0yn3taCJs1zC4wvxgjmBgi+99K7fsMI1cvX3JibneGJB4s6vyrWqFVdUkjvKpVdvSqq5rviROb3DSk/JRThlmUnXhIsUNDm67PxKeLtx9vH66DE979sUZfYqWoB/NAMUd448FkKShhzY9Ump1ukl2YOLAo0FoSLouoV8FMsMaoS2wXCg7WjRdC/NM5cygzU/NQMlanLnl2LciHDBnMhTiAw8KfbOZDLqhnz+40cEB/io6KZGaXznTyZM0vseBt6sfyypoeGdeYrd4YwdNFULHWbCHOr/exrbvmh45xlFbqBLAYV4XK84Rr5BoTuCjmmrjhxG41W7giqBVZ/2MWdXGEVirIcIGKyBfH1iy+hiHh9f/k+iV8IQvKCpjghNnFGMFkMmrmXOUNQPCo3zaQ5+jkIoqUYxVbJg+CFw9I7aFyTfvAN2aHvlisM6fxiuzPJaalC3IPCK6zIIePudrP3Cx+bG7AFMGcEn3T/2fvOuCjqLb+gRBSKOkhhfSEFpoUqdKkKUUERelYAOvThz7BXuDxbPiJVBUbSFUUC4jSew+9hhIggZACIZVQv/u/s3d2tmY32YSwuef32507t89/ds+cOfecc3vx4rO71tKx1UssVeX5x48fpyZNmxLWxUScFasNNIX1dfpuZCXs3q0p0ScnTphItYJq8bgqY54Zw5n6+x98wEyafWnBggX6iiVMVWhGHlZbYVqFhYUGTByY7t27n1rd25Lf3Li4mHLNyCszSdVRBBNDQVVKwYFD9F2c481bCuNBW1j/GJMWh5u6RWTjOqV5fvOaTsJl6pClrw2weygXxnTjOj6ktvOJiCPv2tFm3cxbDHpJZeKJa3+lExuXUUE2e8tib5ZgguYkWrVjkbBzOaCyi6toqT9qfnu3S+CNfEvzxgj99+Hl8/Rj2JjCInJDpqsHwWJl14Ivimy5b/9+enTgQF4vNjaWbb5uu8BWJ06R+m/cuGnRzT7rShbhg35Xr15N6zds4Dr1/sy935GM3HEcoEjIyl+FKlUUZnD+/AWzk4MuGVS9uukrq9kGpZgppCdzzLUGWyx1FGlt131rKg86R/Vd0n7yCvRqD9ifG1P1ar5qVpYZtYpaWEqJKylJvGdYk1SqbL90327U23zhEHpxeClyffmzE5hO3VSqDqjTmI8Fq5gDf85h7vBMWmZMHFQzKIwf+ZfOa1mfUfyUp48p5p5+eh18blrR6gLEYDFHUC3BuQfkyaxT7CWYTTYb+Dxvdjn5JG36yjYd9K6du9ShGsYrC59qRhGJ8AjlDSw7W/+7tNYE3pxndGtu3l5e1qraXVahGbnwrvLxUZxytOjB0N/VVZFACvLN67+09Us7nadTG8DBR0uQTEPM2Hpr69iTLryWx00H0ebeeL10aGsfaA+CQ5CjCesYsDEHNYhsZ9J9fU1eVq5izWJSqRQzMs8cVXuP7dhHTduSgEpAOAYlLJpK674Yz1VBsAgBgzcmsbB4nVmvGFNch77GWQ45hw05e7oY9BXRvJN6nmfBMgQVrrG1J1BgXCN+NPeVq3OWCm3Y2mYTQ94ni7dyL7PbB8Hhaj2w0wlhPNPKV1bWZebopqjXGjSMt1LTtEjYj6ekpJgWWshJOpPES4qjk7fQJc+u0Iwcnlkgb29vZjeu/4HBegX6cUFJZwwXyER+WR4zryTz4epGtCYE2gLBS7RzSxa8RxcxkWc64Gt9wo+8FzgDdWo+lEuGotuqrh7Uq/0LFBbUQGQZHLGwCoJDUD1mWuli7nXcoIV9J7uO/MkbhAc3pHqReusFf+/a1LbJI7wM5ox5zMu1rAmR9oTnZfwDQwiOQVrCYl29+x+hji/8T5vN1CexqkrgwsEddHb3Om6hsXfJl7weGLwwpRMNhaVJODPZA7MXBPVCaFPTh5woL8kROux7BoxRu8CCYmjT+/h56tHdVplnjs7704ct8oZrmL/aGUvs+eUrfuri5q5a7WjLfZk3Kax5wpp3VLORhwcd3l5gRQMnKLjlu9f0MfiIhVK1oSZx9OgRfobYKbZSo0aNVFPCpUuX2tqs1OqZKhpLbajy1/Fq5pI7ZPDj3LOrXbs21KJFM4IDEAz8xRMzj0kS+/cfvOOTh6dns3oP8B/s4AcmUDaz43at7Mbdz7HAJSxNHDHRfcdXsQiGXSiIueffy7w/m9brQZeYK3uVKm7kxxZDMdbR0+YX4U6e280djmBd0rfDy1yqFIuti1dNNDBbjAhqRN3bjlanXE0nxcPpZ1T/qWr++bRjtGzTNH6ecGQ5tYrvx6+7b8d/030s/O9NpteHTbygtbt+EMkyP+748VPqNm46N32DYxBsuMF0sTgJBgPsEFBKEPTZHZ77gJ9CnbJj7mRRRKe3/sPswdsQIvxB95uWeIDpy0/w8lMbl1ODB4dwJt6HhYtFHBF4e8JKBf1bY1zqAMVIRDFX/tAm7dgYVwkOOiD8/vYv/dZqb/uWzqZur03lNuotmK1980EvMsZPdOHQdtr+w8e8LR6CsG+HPTmceXpP+JGwwIr+EeZAXNPFxH3qWFFteqq/fTzQur8+XS3TJrDwaUlnPpOFrZ0+fQYLYe3Jguj1pBUrVmibmk3/66WXeD7UJfbEEs/XvZmIt32znRcjs0JL5AhPu+SXpXQ5S5HesFMHpHPBxE+dTqJFi5eQ0JUXA9+im+j0mrfwq7ZCcB9ftUP/Z4ETEUwHt+z7mQ6cXMdbGs/zNik6U2NLBlS25viCsrnL32TenPP5nwhMGUwdjj5gRPBCzbAQoRBeo3P+HE+wz4bnJeqDMePjaiSduzNzPzjwiI8wLcT8RB6OiPMiCFYns5e+qDoR8XIdE8fDDXHM4X1qQDqMDfLUEwUj5dT6PVCbWEnkZabR8vefpIxTio0xGHiNwFByq+7FsYDUmLR9ldoDIvOBmeMebfzyXRO78K3ff6jao9/37PuqagMLgkksToogBIUCE8fDYPXksSKb/XYVtQEy1N+BsFjSqR/UfF6pEm9rDjI8WMRDSTBxmDCu/Xwcc2Cyrh+HCeAGZg8PyxyMh98F1hK0bxMYePfCL2jX/Cn8YYRyT98AHkcGTBztEN8lPVEvWCFcri1k7npEu927dquha0eN1gsWotz46O3tQ8KR6I8/fjcutnp+7tw5Xg5GDqneUVQpMipW+0t2VL93XT+wCfXz8+XhLLOzs3mQLAR+t4Ua6BZJDh/S/8BsaVecOggWFeATzk3H4NJu8CcsToc2tIGaBGaJYMyX2aYPd0JtYW6aYPyBvpFc+s24fK5ENuDm+i9pHhY8vViY1RoBwVSYz0KsXkyxaBNe3LHwoPAJr8Nc6l3Zw+MIY+TZxe3KYjtYwOBhc3TlT3R4xXzGWAO5Oggu/cZBwCx2UowCqEe8meOUSxVXFkIgjeF3tsi44sUYhjdp1aoVTfniC54ePmwYwSzREr3zzjv0YK9eBCei+7t0sbotnHEfISEhTHj8hT3IlAdmTk4O2/cgl4XL7mdc1a7zCq1a0SIFlUpysu2LFtq2ZZnGYmLyRUWnV1bjIqKguaiCZTW+pXEg/Sen6RcYLdW7U/mQFqEKEeqQ0pgHVDcldY23d15gqviUNl1lUQ8RMbIsaPv27QTJPJ4tePbu3Yc++0yv4jIevyGTpMHEp075wi4mjn7Onz9Pkz/9lMY88wy3hoMa155YLcZzEeeSkQsk5FEiIBGo0Ag8//xzNl3/QLYtXEno559/JnxAXswM0RHmzZKRl+SOyLYSAYmARKAECGC/T3v2/LQ0lGTklpCR+RIBiQBH4FzCRm6hckljJy+hKV8ISEZevu6HnI1EoNwhsOfnmeVuTnJChghUaPNDQyjkmURAIiARuDsRkIz87rxvctYSAYmAREBFQDJyFQqZkAhIBCQCdycCkpHfnfdNzloi4DAEEAUU8bgRY8gaoY6rmb08rbWRZWWDgPU7VzZzkKNIBJwGATBDxOww/pTXC4S7+YaNG/mnJduA3BJVq1aN19m4aSM1ZRsxSCpfCEirFXY/PJl7fkxsDNvizZ+5e7vQBRaf/CyLiZCdnVO+7pacTblHoH//h2nU00+azPPpUWPo3Llkk/ySZEREhFP79u0oJiaafBhDhnfy6aQkFvTpb5vHmvDfCVwSR1gKeDdaIgSPO8Z2yarLdsv6gO1w07dv6YTKtTS+zLeOQIVn5PXqslCtnToYvFbGMaYO2rBxMx08eMg6grJUIqBBIDMjg3Jzc3lOFRYjxN3djaeLUltourAp+a8XX6BevR4wqdu8eTN6ZEB/2rJlK73/wUSTcm1GFNvGsGULRQpftGihtshs+oupU3iUwMBatXiskeXLlpmtJzPLHoEKrVrx9vaiLl06cSaOyIGJiSfo8OEjPI4CbkWH+9pR/fpK7G+cS5IIFIXA2nXracAjj/HPa+PGF1W92OUiDCo2R0H8DvxurzCpWlDbtm3ohResu5y/8PwLvDr6+OH7H0RTi0fEIsHmwaCnnnrKYj1ZUPYIVGiJvFPHDiriCxb+pLrKbtq8lYYPG8ykKXdq0fweOnKk/AZmUi9AJioUAn8yaXgV2wNy3779Btft7+9Pc+d8x4WTnj2607RpMwzKxQkWOFu1bsNP165Zw3bJuSGKrB7nzplDL//73xQaGkrh4eF09uxZq/VlYdkgUKEZub+/stdlCpNotPEO8KM+dSqJGjSoxyOTQXLPyrJtX76yuW3ldxSht41nO4wjrvmhQ4dpxd9/87DA2lnfc09TioqMpGvXr9Gffy7XFvG0j48Pde7Ukad37tploPPFA7Znz+5Ut25dCgwMoLzcPL459tZt2+g0iyGvJQQlur9LZy6tQs/bt09vymBS5cKFi9mbVwENGTKYwmrXpm3bttMvv+p3eoHE26d3L97V3/+spDp14qgL20GmVq1AOnDgICEvLc2xEQARB78Tu+YmTRozRhnCo3FiXlu3btNeEk8fO2Y+zGoGU+1AOm/IovjhGmrWrMnWevSSuuioefPmbKMQZV/RefPni+wij4sXL6aXXn6Zh2Ht1bs3zZxh/kFRZEeygkMRqNCMHOZUoMxMtvu4ER1PTOSMHNlgTllZB4xqyFNjBMzpbVu0aE5Dhw6mTz6ZTFA7CMJ+h2PGjOKn4WFhNGOmsq2ZKP/8/yZTUFAtvqnHtu07RDY98EBPevmlF9VzkWjV6l4aMWIYfyhMnTZdZFPjRg3VcdRMlujYoQOTQq+rkefAPH1ZPPrZs5XNOwICAtR2rVu34sxVtEfdwWxnqffe+4C273BMmNWoqEj6+KMPGeOtIYahhvHxBKkaTPu1ca+rKj+1goVElm6jFKgL8fAyR02a3qNmJ1qJva1W0iXQJ0K4In5/vXpS7WiMz506r9A6cltBr85MryRZR+CtN19XF98QLH/Dho1cysXmHJA0x437D38gil6WL/+Ldup2MH/oob4GjPLFF5/nTBx1v5g6neuARTtI6iBssQWV18qVq2gde0BcvnyZ5/fu/SA9+4x+X0meqfvCIuTZs8oOLViERPjQJGblcfWqsvVat673a6uraTBuvKWBaSck7OEPFyxevv/+uwaMV21gZwLXNGP6VN4X3mIgUeO6zuj2iq3LFuQnTZpQZK8weez/cD9q164tr3vixAmL8bLF2g9wvHnTtl12xAQE1uHhYSJLHu8wAhVaIsePGFK5n6+vyW2oExer5nlKRq5iYS4RFlabm8Gh7CgzUfv32FfV7fEgYS5cMI8z87fefINGjX5G7eJdJtEuWPAjebHX/w/ef48GDR5KdeLiqHevB3kdMM6//lqh1kdiz5497O0oi/AgMKalv/7MJcXu3bvSzFmGEj7qPvnUaK5CE/WwSDjmmecJlh6TmBke1DDmCFLoM88+r6p3GrONuj/5+EOuXnhmzGj6mL1tlITwEMSDAUz8lVfHMXXUIbW7sWNfph7duxFUVfFMQteWoRJ2nPls8scM3yoGDxX8tqd8MU3txzgRERHBs7J0D0DjcmvnKedT+Lh+fv7WqsmyMkSgQkvkQqUSEhLMmYnAHRJkNDPNEuTp6SGS8mgGgZEjhnOmBoY3bvwbKhNHVdjiwxQOVLt2KD+KL0iCr7zyH14fEvL/ffYJk3Lf4cVg1u+/byqFQgo3x8TRaLtOBQMdujFhbmId5MoVRWecmnqRV0tkajQQtt8yZya4/8ABlYmj3v79B9S3hHvvbYmsYhPGgz4btHbtOhNGPWvWV5zBo7xHj244GBAelJDotSoZXOu/Xvo3nThx0qCu9sRXJ7ykpikYaMuKSp/RrUNIT8+ikCq78gotka9nr/+PP/Yo/wMPGjSQTp48Rdev32BMPJJbrIjbcPOGfa+eol1FOYbpXrHBlH5avMDksmEhAUI51hvOnNFbOsBJZvr0mQR1SiRb/ASBEY195TWLr/xgWlCfNGBSKtLCFE9smm2OGaNPQZBWQdD1gvLy8vkRX9h2SzB8kblz526RVI94oEAahjqjJBQTHa02x0InHHyMSezvGBsTY1zEVUU/zPmRXBnGeFDCO9PDw50tQk6j3377w+ybCToReFQthst9VbZJuSDt5s4iTx7LHoEKzcgvXbpM69ZvZAtf7TmTiYvTq1MuXkxjf+rq/I+azXS+kiwjoFVNiQVkS7WrV9cv5ok6fy5bTg8z3a6Q2P/8cxmlpJjfP/VexqggtRsza6glBMMT/WqPKBckmA/09yCtjlg8FERdHC+mpmpPefqSTiWBhwc+2j5MKlvJELpqVME1WcPP3Nzy8/Np/nz9wxN9fDlrBjMNDKN+/frS8r/+Mnhwiqmksd93ZFQks/oJFFk2HyMiFbVMQX5Bsa/b5sFkRZsQqNCMHAhhYQm2sDEx0fxHff3adUpki0TnmZv+6FFPchDNmW/ZhG4FqSRskC9cSKWRTzxl91VjMRHmdoK6M53w9z/MNWtx8aZOnwzGOXfuPMaoVqgSNDwaR40qenwNTxdDWj2aY6Dah4b2IWG1IzOFeYwRCxo37g3au2+fOC3WEZL2xP9Ooq++VDaD6Hr//fTNt9+Z9HU66TRn5DXZ+oS9FBys3Ku0dMeaX9o7D1lfj0CF1pELGHKZHfK+fQeYpcBqJqFvYNLgefbaHMwlLdQRunRRXx4NERD21NWr22/dg2BMHzDrDzDGgoICnb7cne00/rHhIOwsloVOEC7vX7CFvAULF6lMHJXFAh7SxhI78opLcH4xpiDmpg7CQ0yoKYzr3LqpV+eYexNBfe3iZYjmYWbclz3neJsUBBNOc3T48GGeDbWXuTUFc21Eng/zqwDB4kdS+UBAMnIL96Ftm9a8BPpU6HElWUYgMVFZVIN+uR4LqmQPweICjARS7Usvv0Lffvc9bx4VFUlPGwWf0lqViHgmvLLuq337ttpTh6U7dLjPpC+8RYBgammJziXrfzeW5oYFV/EgeKhvb0td2ZWPNxpBeEsyRwm79Xp/e6IZwn5chLI9onsYmOtf5pUtAhWekd97bwvy9VVskwE9mAr+UAEsEiIoYc9efpRflhGY/c23qov3fyd+wCVnbW0sCr737tv09ltvaLO5w41Y4Pzuux+43fRPPy1RQyI8+sgAatqkidoGpo2Chg0bor4xQfqG+WBJFx5F38ZH6JsffFAfoAqOR3hogf5g+nxLhMVUsbDavVtXbuZoru7y5YqJJbDAoq+WcG19+/bhbvda6XrB/Ln0+vjXKDg4SFudFDv60WresuXL1bQ2gTcBvAGBnnjiCW2R1fRzzz3Hy/HgXarxhLXaSBaWOgIVXkfehNkEt2B2xDfZa/Dt27eY27IekrT0dNq71zCWRanfkbtwACy4fT37G25JAieb6dO+4BEACwuvUbVqnuqru/ZVHC76cF4BwXNx0eKf1Csf//qbtGjhfNbOjSZMgH35MN4fvBTh0APGCqb35x9LeRAnmN/hvkGydaRKRZ0QS7z0rxfoqSdH8v7FA6Og4Cqzg1+krWaShtv/448N5M5HeNgI6XsOszSBagg0Y+YsZq3Slry9vbkNPbw5sS7jwq6pBsNTXBOkYUGoCysXfNAnHhhYKBV1UQ9hBLRqFtFWHP9esYL6PfwwNWYPS7ztGFvriHraY+8+ffjpsWPHKOtKlrZIpu8gAhVeIhc2xS4ulVUmjj/G4cNH6eeff1X/eHfwHt0VQy9d+jv957XxqqoBDN2PubwL/Ssi861avYZfC5gN9OIgeFXC/VxLkGTffOttrm4Bc/qfxqsRdYVFC/qBKz2YOJx7pk6boXYjGOZNdi9B2gVJ4zK1kVLT8JSdLVr0E/8d4JoEE8/IyKQnnny6yN8H3jQWLlrMpF/F1BFzxsfNTQkPgcGwcDt4yHBaz9ZnME9cD+y84SiFupgvFuBF5EG0QaROcR2oA5xxBIGpf/vt9/TZZ5/zc0tfs9gDBH1gfeL5F5RIiJbqIr8PY+LiYTJlyhRrVWVZGSNQKTIqVm+XVcaDl5fhsODm7+/H7ZHT0zNskky0c28Q35CfHj50UJtdYdNgeE2ZDtnXz4+b7h1nTEe4dTsKFNij12NBs64WFnJHIGET7qj+oQ767tuveXd4QMEJCGqeYLYIvnt3gsMDZmnnHRMTzcMnw4Iqibnpa5m2th7SUVGRPAqhj483ZTNHp2PHE9UHHcqLovHjx3Op/DoLXtaxgyLdW2qz9LelLHRCMPPePUojR4ywVE3m3wEE9HqEOzB4eRkSr+yWgguVlzneTfPAQuSmzVtKdcpwKtI6FpXqYLrOYRpYUvNAW+YJxzR8bCFEezSO+GhLO1Hn008/pQ4dO/I3DTgTWdolqAZ7O/Dy8ibYjr/xuuEblOhLHu8cApKR3zns5cgSgTuOAMwnH3xAv5BraUI5TDXWuVMnS8Uy/w4jUOF15HcYfzm8REAiIBEoMQJSIi8xhLIDZ0QgNzeHW9Pg2tKZ9ZIkiUB5RkAudjrg7sjFTgeAKLuQCEgEio2AVK0UGzrZUCIgEZAIlA8EpGqlfNwHOQuJgETAAgIiIqTwkrVQrVxnwzcAdv7wGShupExrFyglcmvoyDKJgJ0I4M8KpyHjj53dlFp1F5dKzKmnisHHzc2l1MYracddu3WjDRs3smB269WQDCXt8060/+ijj/h1zJs3v1SGd1qJ3N/fn7lFK9H4kpLOFAkeHCrgZOLNbGVTL6YyG+VzaiyKIhvLChIBHQL9+z9Mo4yCfaHo6VFjykXwtQnjmlH9Ot4G9+v6jVs08Om1Bnnl5WTca6/xqezcudMmSXZSr3rUIdaPtxnw7S66mFNo8VLCvD1YXV+K9PGkGu5V6MylAtp/Pps2nzbdjN24k5qs/vIxrXj2jjNZNHapfns+47o4nz59BrVr356HDoYZ59p168xVK3ae0zFyMON2bVvzuBUCldnffK8GLxJ52mOP7l15PHKR16BBPZ5cu26DGsBJlMmjRMAaApkZGTwuDOpUqeLK48UgLdznkb6TlJKaT2GhioDjzphRFSahl1dCMC84IoE++2yyTdOswkJtCKps4dK8PVxp9qDGFFTDcEvA9tFEQyiULmQX0qu/HeKMXfRlfKzMwhoIYvuKFEmnTp0kRMMMq12bXmPetI5m5PqrLnIq5bsCdjoZPmww9XqwpwETL2rWXe/vrDJxbPl1hm0yITZK6Nypg0kkv6L6k+UVG4G169bTgEce45/Xxo0vd2BM//YIDXt+A//8sza53M1PO6HHBz3OT8+wN2p8HEXV3aqoTPzq9ZuUmJ5HBy5k0y3djiPBNd1oxiONqWoVx7LHL2fN4peAIG/wonUkOXamjpyZnX1FsIh4iPEBysnJpRQWRKkowiJKXFwsr4YgSNj7cNmyFTT3x/nqa1yb1vcW1Y0slwhIBByMwD3NmvGQAOh2xozpDu39xq3blJZbSB/8fZy6zthGT8zfS88uPkBdpm2lXeeu8LG82DrCI02UnZAcNfiqlSvVUCDPPPuso7rl/TiNagVR3LDz+qbNW3moU759GAt8ZI3i4xvwyG+o8/c/q9SqCKIlNvJF3GlvtiNKVpZyg9VKMmERgfr161Ertrt8nTp1eCS/c+eS6fc//rAYGwU7/3S47z7+9oN9NA+yWNmrVq0xG2grPj6e6taJowtsH80dO3ZSm9atCBs/eLF7dIRt2zdv/kK2gbayF6fxBKHe6Nu3NzVkffixgF4Iv4t+/l7xD48uaFxfnLdmY7Rs0YLCwmpT5qVLPIDWPyxErKOtD/CbQ1hasfVdcnIKbdu2nbZu3SamckeP0RE1qF3LWhQdWYNhfJMOJ2bRuk2plJV9zeK86sd5U8c2QRReuxodO5FNazafZ7jdpgYsPzvvOu1IMO9s1atXL94n3o7Xs4VOR1Jq9lXq/80uky7B4GdtSmJqFyUGfuOQGjRfv/+GSf3iZGzbupXu79qV/TfiitPcYhunYeS7E/YQPvZQTEwUr44/vjYW8wM9uxt0ExcbSzt3OfiOGozgHCew1Hj/vXeoMYvxriUwJmx4sGzZX/TF1GnaInrxhed5mTYTjPOJkSPok08mM12i4Z94xPChnNHhDSrviTyKCA9XmyI6Ye/evWj4iCc5k1YLWKIm07XOnfO9qrPWlvVhbb6e/S0LW7xEm81Dw3766UeE+6+lLp070ZNPjKRX//OaxYeTtr4t6aioSPr4ow/ZPGuo1fHAQWxyxGtH+JkdqUAAAEAASURBVF5HR3hUB7Ih8czwetSji+GWdy3vCaChA2JpyleHaOP2iya9jHw8jh7qqb8/WGR96IFwOpmUTbFRNamw8CY9PmadSTtkxMUqjM7aDkxmG5Yw82haLlexQAeuUbeXsFd988TERM7IscsSQg876p46jWpFD5XtKQ93JVD/ZSbJC7rnniZ89xcwdxHDWli/iDryaB6Br76coTJxvB1Bkty4cROPFY4WobUN35AGPf6YysQRlxz19+zdy2NkQzodz3bAMbdfJvpC2GEwccQh37dvvxqbG29QTz/1JKoY0Phx/1GZODanWLlylcHcPNifypj+N2miysThpr9hw0YeUhb1wHCnfP5/xk2KdQ6d6YzpU3mf+M1hQ3DM7wwLYQuqW7cOTdLEZC/WICVo9EjvSJWJXy28xaXo/YcvMcxvszfXSjT22YYUEuRpMELn9sEqEwfDhuR94OhlXgdMvCgKCgniVdI0+48W1Qbl0HkLgoRtL9ULZBt56BYyd56x/BYu9Onov/C67eNo92i1Z4u9oq7DaSTyoi7UXLnYyLeQMREQJEqoBED/rFxN3bvdz2OUQ9UiyToC2O0HmzyANm3aTBMmTjJo0LZtG4qMiFDzoOZ4nDFyEFQcQ4eNVPWHUM3832efcrXXK6+8TGPH/kdtp02sWbuOPvroE54Fxr9o4Tz+EG7LrJa0kj/KmrNdoECIJf7Gm2/ztPiCygQ7RGkJeQ0a1OdZ2GLupZfHqsXDhg6hoUMHM1tsdxo48BFavPhntaw4ibfefJ1btYCJv/LqOIMNmceOfZl6sD044xs0IKiVtIygOGPZ26YyM/0Y0Ed5cy0ouEFPj91M+ewIqhvrRf97swW7T0QvPFWf3vjvbrX7YY8obzHXrt+iZ/6zRVW/dGobRC+NjlfrWUrUqK68mSSdSbJUxWz+O38dI3yKS+/0VN4EmEUmrTqeYbGb7Ks3qP2UzRbLLRWITa9R3rhJU6Y6c4zarEJL5PC2AmFzAhDMEMFgoNNFrGthvQIGL8k6AgMG9OcVIFn/d9KHJpW3bNlK8xcsVPOhIxQP0l9+WaoycVQ4cuQonTipbOiMzSPMEZjelClT1SLoq3fuVPSexg9e3FPxdmXOOxD3G5K9lvr26a2efjr5MzWNxNwf56nmrN2YvrMkhLk1bKgwtrXswWTMqGfN+kqde48e3UoyVLHaxkbVIHc3hU38/vc5lYmjs2MnrtCpM9m83zrRXmr/Naq7ko93VX6+duMFlYkjY92WVMrJVR4EagOjRHBwiGqueVL3OzCqUiqnT7YOo3BmUw6auv4UXcq3rPsv7gSw78GNG8pbQ307Nyq3NmaFlsjx58Y2V/gzRUdH8Y1sIZn9w15rFWKiBqNbbC9PSdYR8PJSXpf37derOay1iI6OVotXrzF1RgFThm4a0jQ+xguL2DjYWL+YelHR04oHtBgAajI4hUVFRVKbNq3py1nTaQtT42xmm1+cOKE8MERdcRQqHTB+MHpjgnoGi7TYO7MkFKPBAQud7du3M+kOv1FQbEyMSVlpZ0SG6XX2YMLGlHAgk2Iia3IVC9QsWMiMCq+uVtuWkKamReJsci7F17OMWwF7QxPk7uYukqV6bBvpQ0+2Cudj7GemiEv2Xyi18fCWAxICpCMGqtASubBuqM5UJ/d36cTx3MB0utg0GOTqqjzn8pl9uSTLCIDRurq68goXztv2B9AuUl7UMWDtCGlp6eppVFSkmhaJfLZTjTEZM3ttOTaHFow/MjKSBjMbZWwS/fNPC1U9vba+f4A/Py1g+4eaI6wBgLC5dEkIaiRBEChgEmv8EeUCY3FeFsewkGrqMGkZppinZyhvs6gUUVth4OKIvAsXTf87OXnWJV1s6izehmPYw7K0KT64Bn3YV1GjwRnoXz+X3paN2IsV9xmkVbOU9BortEReyFQqbm5uVKtWIMcRlhB4rRcEBgXKZa9DkiwjoGWgVasqDN1ybaXkaqGeQZqTuLVMyxzTLqp/43Loxh/u/ygNGvQY25vyPmZKGMb/UFgcheUMdpGfN2+B2gz7ZYJcdH86tUCXcKmi/Da0125cx5bzPI30OW7cG2WylZwt8xJ1Cq8pagCcQ+LGAqeWXF31smB+gVJXqzqp5onfg/5eo63W+1LblzYNKzKYiNZmaxWlSVG+njSdOf9ASM4quE4j5+2l4iyS2jrHRo0aqVX37rHPyk5taCahvwtmCp09KzdXz6ChZvlrxd/qJQeyhTvxSnuFbWoryToC0I2DwlmIBFtI66mnlc5F21CND4Cx/lrUsfcIXwMw69FjnqPeffrRzFlfqtYuMPPTUlqaohIQu8Zry5D281XieVjb6/WWZgG1um7xzrgfrU48JNTQqse4rrnzWKZ++mHOHPUzefJkc9XM5jE4OIlXfXOVoAYRFB6qV5mIvJBa+jeS1DRF+j51JkcUU6RGzSIyA/zcRNLiMTlFUWcF+isL6BYrlqAgxMuNvmE243DgzGfWLiPm7aG8a9b19yUYjjetV1+R/HHiSIm8QjNyrfR9mEni8AgVVKdunEjS8ePH1bRMmEdAML4G7IcKm+2iCLu9C+rfv59Iqsd27drwtLnFSbVSCRKQpJcu/Z2bLqIbBFnTkjD9w9uCsGQS5bD/rV1bsamGWaIlQmwNQe3btxVJg2Nq6kX1YfIQc1ayl6DLr8sWhMWn5b332tyFUHu4MHEUzj7m6ESSnin36R5mUqVVcwU3WKcISr6Qp0ruvboatoEEH2bmgSDaimMis50HVWPe2kIVIcoccfSr5krfD7mHu+HDZHEkY+KZzEGptKm+jpFjjaekb3PauToVI4du0dPDg3/cmcpEkKenkocy7Y8ikS10CbOzOnGxTM2irLRDGm+ksyRIY3/UggLDV0PRrzzqEZg6bTo/Ab4zZ0zjdt6iFHkwoxvHbLkFpaSkkGD+WOTTOhENGTJINWVcv36DaFLsI+y0p02dQjCB1BKsW4TFiNYhDHUW/7REZbCvvvqKwcMJ9uXidzR37nxtlwZp6OTFg6h7t66qCaRBJXayfPkKngXd/YsvPm9QjHH69u3DnJm+o6CgWgZlJT0Rdt3o51+jGlBQoF66Fn2fZ0G20jMV3Xj71rUMFikHPhRF/r7KYuRmjUMQ1C+79mbwLvCAGPZoLMOrEvt/udAn77bkadG/pePChQt5Ea5/0KDBlqoVKx+xVn5gTNzTVVGPvbHsKBUye0Mwd+0H9RxJEApaMA9hUMLu3Y7smhw7U4dOzf7OBj7a3+APJ3oYzPSigrZv36l6gOJVGy7QkP6gk33qyZFsoVPRm6M+yjes3ySayqMVBPbvP8CxhFcmnHV+nPsDf8O5desmvyf4Q+7dt8+gh6lTZ9CECe9xpvjJxx9SdnYOX2AW6gwseM2Y+aVBm+KcoL849qB+9523+CIawi3goa/1ovzww08MuoZtOxgsPFJRDzbqYPaI5yP093Ch37Fzp0E745Nffl1Kjz82kLeb9N8J6sNhzpwfacHCRbz6jJmzmLVKW24B07vXg9ybM5vtWu9SpQrV0EikAhfjMYp7fi4lj5kP5nBpHAuUMz9uo0rSz43bQhfTFQHmyx+O01tjm7D1gko0cXxzymGSK/TcHu4KI7zBLFW+nmf41jprzlFqEu/LmXf/XhH08IMR3N4cc70JRyIopa1QMnubEdEChzC7/XnzfrRS276ie2rXJERAFPRZv3iRNDgiHos5V36DSnacDBs2jIesQJNp06fZ0bLoqk4lkTM1d5F0mwwr7WMMaOOmLeofDIufIEhSS5h9MyRySbYh8O57H3C9Mxgw1hfAAGGeByYO6XTjBsOHIpggnHOENQnqC2YFaX3EyKdMXO3F/bttxiTUeCFOzBp67MuXFa9CmCbiQSOYOF5vFy36yeQhg7Z4y5gz90f+28A1QLIXTHwXC9kwesyzYgiLx++++4EWLlqsvtWhH3zE2x8aYg6DhwxnMUU2cJtxzBHWDV5MRYW6ECgST5ygzMxMk3FusrKS0PgJu2jvwUuEmOQgSM74VKqkZw2792fQB5P3cpd61KnBJFfBxCGtP/PqZnZ9hrrly1nXaDTLTz6vqFlgQQmGv+/QJdq8Q1l/sHS/MAZIRAsEFo6MFmgrZFrvTWVGJfseNHgQ7wBqu9OnTpesM6PWlSKjYg05m1GFinTq5+fLGc+FC6kmDMQaDnLzZVN0YAnUuHFjLoGcOnVK3ZHetKaSExwcRI3Zij4eoLsTErh0bqlucfOh20agtOCgIB5PAwuux1nsC2GGaqlfMFNI9HVZEDBE1cTbR1FtLPVlS35MTDTBLBGWM0nsT5+YeEIVNGxpX5p1ggI9qGFdH4I1y17GlHNybdMre7JogsIjdNKbzQnBtKCjf27cVqvT/WnJEh7D+9ixYzRi+HCrdctzYes2bejzzz/nU8R14HocSU6lWikpMJmZl5jUc6mk3cj2DIGLLEYG4oXYSnh44lOaBMkfZoj2EiRiBK7Cpyzo5MlThE95pNS0AsLHFhIOQqgrmLgrMxERXqCQ1ouit996i2axON612YYM5sxUi2pfXsofeOAB/uYJl3xHM3Fco5TIHXCnpUTuABBlF06HwJJvu9A5xqw3bEulU8z6BdL8Y/2iybtmVaZCIq56yciUhgSOuPFSIncEirIPiYBEwAQB6NqxiCoCaIkKYOI/LjlBkokLREp+lIy85BjKHiQCEgEzCEz/5gi1bhHIJXHoyLNzWdwaZimzcOkpSrlg6rpvpguZZSMCkpHbCJSsJhGQCNiHwKqN5wkfSaWPgN7GqPTHkiNIBCQCEgGJQCkgICXyUgC1qC47dOjA7aXPnD1LZ5KSmA2ubVYARfUryyUCEoGKiYBk5Hfgvr/9zjt8Jxsx9D7m8Thm9GhxKo8SAYmARMAuBFy8fXzfs6vFXVIZQZACAwO4gw9csm0huF+HhATzNnDVFzGRi2obEBjIq6SnKx5rRdVHZD9EW0SsD3gKBjEHFXgfHjx4sKimslwiIBGQCJgg4HQSeQQLo9qO7dmo3bll9jffq8GLTBBgGT4+3tS+XVsWo1of+3jN2vWEvRpLgz788EPeLTwG161fz+N+tGU7wyxYsKA0hpN9SgQkAk6OgNMw8kAmFffs0ZUHJ7L1niHeRa9eD1BQrVq2NnFoPXgMYnccbHIQ4Fd6cZcdOmnZmURAIlDuEHAaq5WI8DCViSOuOGJiFEVQpQgmjtgZ2vjkRbV1VHmhbqccF922co7qV/YjEZAIVBwEnEYih3SLfRQ3bd5K2Bi3SZPGpN1lxtwthZ4aQZp27txN+w8cZAuQ1XmwInN1ZZ5EQCIgESivCDgNI9+dsEeNM24r2JcuXSboz8sDifC55WEucg4SAYnA3YWA06hW7i7Y9bO9kqXsBxrArGwQh1qSREAiIBGwFwHJyO1FzMH1Dx5STA6xEcOIkSMc3LvsTiIgEagICEhGfofv8ldffqnGJx41ajStXbuOfvvtN5o4ceIdnpkcXiIgEbhbEJCM/A7fKWzzNW3qVDp56iSfiQfbKLoWcxBq2KjhHZ6ZHF4iIBG4WxCQStk7fKeaNG7C9oZUNmItyC9ge17O4FuJmduf8Q5PVQ4vEZAIlFMEJCO/wzdmMNshXNDLL71E+/Yb7jQvyuRRIiARkAhYQkCqViwhU0b5wcHBfCREQJRMvIxAl8NIBJwMAcnI7/ANxXZYoIzMzDs8Ezm8REAicLci4FSqlapVq1IVFxd+L9zd3NR74skWEEX+VRbVEF6ggmC7XZVFIAR5eHiIbHJ3dyNP3fn1GzcILvySJAISAYlAeUTAqRj5wEf7U82aNU1wHjzoMTVv+/adBh6g7du1oQYN6qvlItG2TWvCB5SaepF++fU3UeTQo6dnNd7fbc3DxaEDyM4kAhIBp0fAqVQr2J27KLpNhpUMz8y3Nm5jvpb9uV5eXixmuhJ58bwNQb7sH0G2kAhIBCoCAk4lkc+bv9Due7Z+/UbCpyxp5syZFBMby3cJgkcnaMVff5XlFORYEgGJgBMh4FSM/G65L7FxcepWb1evXqXff/udVqxYcbdMX85TIiARKGcISEZ+B27IkMGD+Khpael3YHQ5pERAIuBsCEhGfgfuqGTgdwB0OaREwIkRcKrFTie+T/LSJAISAYmARQQkI7cIjSyQCEgEJAJ3BwKSkd8d90nOUiIgEZAIWERAMnKL0MgCiYBEQCJwdyAgGfndcZ/kLCUCEgGJgEUEnNZqxZ/tgVm9uuL+npR0xiIAlStXppjoKOZhGcDd+wuvXaPMzEuUmHiC8vPzLbaTBRIBiYBEoLwg4HSMPCIinNq1bU3e3t4qxrO/+Z6uMQZtTC1aNKMWzZsRmLkxtW3Tivbs3Ufbtu0wLpLnEgGJgESgXCHgNIw8MDCQevboyqTw6jYDXDs0VGXiubm5lJV1hXx9fcjT05PgOt/snqaUm5tHBw8esrlPWVEiIBGQCJQ1Ak7DyCPCw1QmnpOTS9k52RQaEmIVT6hOEk+cpK1bt3GGLSr7+/vRwEcH8FNI5pKRC2TkUSIgESiPCDgNI0eM8aysLNq0eSudPXuOmjRpXCQj/2flarP3JCMjk9LTMyggwJ8Qr9zd3Z0QE0WSREAiIBEojwg4DSPfnbDHIM54ScG+cCGVM3L0Y06HXtL+ZXuJgERAIuAoBExX+RzV813eT3BwEL8C7AwkrVfu8psppy8RcHIEJCM3c4PDmb4dahXQyZOnzdSQWRIBiYBEoPwgIBm50b1wZft39ujelecWsv09163fYFRDnkoEJAISgfKFgGTkmvsBXfiA/v0IzPw22zfuz2V/GWzUrKkqkxIBiYBEoNwgIBm55lb06f0gtyNH1qrVa+nixTRNqUxKBCQCEoHyiYBk5Lr70p2pU0JDFbvzzVu2cRf98nnL5KwkAhIBiYAhApKRMzw6dryPYmOiOTIJCXtp3779hijJM4mAREAiUI4RqPCMvFWrlhTfoD6/RYcOH6Ft22VslXL8e5VTkwhIBMwg4DQOQbi2qlWrUhUXF36Z7m5u6uV6enqo+VeZJQq8QEFNmzam5s3u4emUlPO0c+duHmeFZ2i+4NUp2miyZVIiIBGQCJQLBCpFRsXeLhczccAkhg55nIeitdbV9u07VQ/QYUMHU40aRQfZWvH3Sjp1yrI9eYP4hnzIw4cOWhtalkkEJAISgVJBwKlUK8xisEi6TdpK2rTlprdv2VbPcg+yRCIgEZAIlB4CTiWRlx5M1nuWErl1fGSpREAiULoIOJVEXrpQyd4lAhIBiUD5REAy8vJ5X+SsJAISAYmAzQhIRm4zVLKiREAiIBEonwhIRl4+74uclURAIiARsBkBychthkpWlAhIBCQC5RMBycjL532Rs5IISAQkAjYj4FSenTZftawoEZAISASMEHBhXuH43Lx5k3+MitVTV9eqVKkS0bVr19Q8exPwQo+OjqbaYWHkxrzQl/35p71dGNSXjNwADnkiEZAIOAoBl6r6MBmiz1s3rtNtXYgMkVdejr/9/gf5+/vRn4ypTpwwweK0/lz2B3l5edNPixfT5MmTLdazVDB+/Hjq+9BDBnsBS0ZuAS1/f3+qXr0aL01KOmOhFjGX/hoUzp6KfuwGVvP0pEL2lL106RKdOHGScnJyLbZzZEFM7ebUsdkg8q4ZzGLCVOVd7zqyjNbs+N6Rw5T7vhrFdqZurZ+mrOwL9O3vr5b7+coJWkagirsn9f3vPJMK+3/7lk5s+MMkvyQZVT2rU2CdpuQbUYc8vP1ZV7cpJzWZUo/upktnjtvU9SOPPsqZODaUmTVzhtU2S5b8Sk8++QQNeOQRmj17Nl25csVqfW1hfHw89Xv4YZ6F/YBPnz7N+Y22TnHSTieRR0SEU7u2rcnb21vFY/Y335t9Dbq3ZQtq0aKZWk+baNO6FR1m0RDXrd+ozXZ4unZgPRpw/3i139u3lYBet27eUPPupkTD2E7UOPZ+Op9+jNbt/tGuqbu6uvMHmbubl13tZOXyh8DtWzep4MpldWIeXj48XYmYTsKB5F07lrr8+xPTHhsT1es+kC6fTaSNs96lG4UFpnU0Oc8//zw/O3z4MGVkZGpKTJPfffstDR8+nKpUcaG3336bXn3VdqGjY6eOaof9+/en9DTHbF7jNIw8MDCQevboyqTwooNgCSRdXJS13hs3btDly1mUl5dHfn5+aiCtBiy8bS7L27UrQTRx+LFlfB/eZ25+Fi1eOYEyss46fIyy7NDfO5xq16rHGLL9P62Cq9kEHDKvnCvLKcuxSgGBm9cK6a8PnlR7fuijReRSRXnbVDMdkKis+w/funmLcjOSKf9SBnnU9KGaIRFMj12ZfMLjqP2Y92jdF+Msjtard2/y8PDg5V98PsViPVFw/fo12rhxA3Xu3Jlat2nLtoasSsizhcJqh/Fq0K87iomjQ/v/bbbM9g7UiQgPU5k4VCLZOdkUGqLs+GNpOseOJ9LJk6cpLT3doApu6ojhQ7gO656mTUqVkft61eZjHz2z+a5n4gYgFuPkyOnNhI8kiYCtCORcTKYtX0+ki8f3GOjeKzNBottrX1A1/2CucvH0DWBM3vB/LsYYOXIkT4IP7Nu/T2RbPX7++eeckUMqHz5iGH0z+xur9UVhJbYvMAjCoyPJaRg54oVnZWXRps1b6ezZc9SkSeMiGfmlS/pXPy2oBQUFBL16dHQU34gZK8wlWaHW9l2JLXdHhzJ1Dpa9GVX3UFRAHlWrU0xYC7VqVvZ5JpmeV8+D/WPJrWo1lpdCOXkZaj4SPjVDyKt6AOUWZFHGZf16gK9XKCsLprz8y3Tx0mkK8oumyJAm5Olek1IzTtBhxjSFKsegQ80Jxq3lF0WQtG/cKKT0rHN0/Ow2JoEUqrWC/GLY+oLy6uyvezB5suvSXg8qn0s9RNeuG77i1qjmz+YYpPaFxLVrBZSaedIgz/gEWEQENaRa/tHkUtmV0tl1o/9sI2zQzsO9OoUE1GOWCNcp6fw+8qlRi+HQlPx9wigzK5mOJG0hvA04klyZjji4QQvyiaxL7jW86RJ7xU89tJNy0lIMhvH0CST/6AY87/yhHXTjar5BOU5qN21PYEw56SlcVaBWYL+hgNhGFBjXmKr51eLZl8+dpMzTh83qhkU/l88lUnS7B8jF1Y1Ob/uHLp87QdFtelAA6+fKhSQ6vvoX0qr2gus3J1fPGnQp6Sjdun2TajdpTz5MH52Vcoou7N9O2Rcd/xYJSTogtiH5hMVRYfZlyjh9hFL2bzFg1rjg6wwv6MKNCfM/uuonav74v3iRf0wjOntpjXE1fh4aGsqP69asNVtuLvNiaiqlp2dQQIA/dejQ0WZGbq4vR+Q5DSPfnbBHjTPuCGDy85U/FB4QWJRwFLlUrmKgExf9xsd0JHwE7Tn2N63cNlucUu/7XuQMe2PCAtp64Bc1H4nWjfoRFgrBpBavnKiWNavbg5rVf4CSLx6lvKtXqG5EK7UMiVYNH6I5y16nG4zBGVMNT1/q2/EVCg2sY1xED95+juYue0Nltt1aPUXBAXEG9WoyBj2gi+Hr7Ly/3qSUNMPFp6Z1ulKbxgMM2kK9MuOnUQZ52pPQwPr0aLc3qGoVd202T/+z7Svae2ylQX6If10+Fzy0Vm6fTd1bjzYo79B8CLue8YypGzJZg0p2nATFt6RWw181UCWENm5LjXqPoMN/L6Cj/yxWe8PiWrPHXmSMujJjwEdp/bTX1TIk4h8cSnXvV/DZ/v1HdJkSebmrRzXq9f4c3k7bAMwalHZ8H239ZhLdvKF/5b932Cu8DDhA7QCKuLcLY9DHyS+qHj8PbdyGAhjT2zjzbX6Or5asXRU3D0pP3E/+jLmKtqGNWlN8z8F04I8fKHHdUrV+SRKwdGk94jWqVc9w7Sq6/YNUkDWC1k9/w6JkbTxufpZe151z0by6rnbt2qr1yJEjh427sHqemnqBM/Lg4GCr9bSF7u6mv1lteXHTTsPIiwuAcbsqVapQDJPE4+MVKSk5OYVJrY6LRw6JZsfB39ifQZHI76nXky/wXUhPpOS0I+p0ki4cUNMlTUBnDTqZnEBXci5Sw7jOnAn6+0RQY8ZIE478ZTAEGORTD09RGWXi2R10ISOR3NlbAyTZQN8IquauX5Dce3ylOveo0HuY9B7GrH/yaX/iKoN+r+SavtqeZVK0h1tNXi/IP4a/NRg0Mjqp7ulNQx74gOfeuHmNMPb161f5QxAPDzDp/IJs9taw3aglXoIq8/IM9lZxOmUPxYbfy6TzIH6dnZoPpyWr/2fSxt4MMKC2T77Bm4GJpuzZRNcK8iikYWvC632DHoPo6pVLlLRdwaYgK512zpvMGP9/ODOt0/lhOr72V97eL7KeysSTdqymlAPb1OlAQgfzh24YEnhO6lm6fu0qk+7rk19kfWbF0YTaP/serZ+qzEVtyBIw/7t4LIFq1W/GMQETz8u8SDdZ+5rBEVwSdmF635tGel9I7KDzB7bT1ZzL/E0BFiON+oygbDb+xaMJvLwkX/e/8hlV9w/hXWChMoNdm6eXP4U0acMtUrq8/Ckte+8JE8ncYEz23wpkD6OWQ8fybCx0oi9z1LyF/i34wAH7/nNJSUnUqFEjtqZWw1zXZvMaNFD4iq06dbOdmMmUjJyBAjPFh/r2Yc4AlVU9O7CCJL5p8xYzsBU/CxK+1pqjblQ7qunpx17vN9Ouw8uK33ERLTckzKdtBxQGsWbX9zSy98dMtRBBDaM7mDDyDs0Hq0x84T/v09kLB/W9M0uUBqzNlXy9tHPghP6V9DazSgAjv8xUQ2t3zdW3s5A6wx5Y+IDw9gD1jzVq3+QxXgyp8rvfxtJl9mACbTv4K43s8ylnzJ1bDDfLyFEP17KILSqjPebX5d6R1KJ+L4qpDaZWqWQPbda+5eCXMAxndCs/fIG/+uMcZnddxk4m79BoatLvaTqzc43KjFL2baGz7Dy8ZReK7zWU6Xv3Um76BWo3+h005RLonp9m8LT4unG1gPd5esvfBlI3yluNHEeQlsHQwWiv5eeKZvyIvs7sXKvWw8Pg70nP8LJ+Hy/hDwhYg+ABYUx4KxAPlEPL5lLPt78mqJEa9R5eYkYe0bKzysT3LvmKTm3RCxi+G+pQp399RFWr1aS6nfvT0dU/G0+NOr7wP3JnC50e3gHqmwruc8JiQ+y0DRs2VHb3grCWnJysLSoyfezYMerTpw//3UCyL6r9Pc2aqTuYJZ1OKrJ/eyoo71f2tHDCutCBe3nVNGDiYLiLf1rC9O5X7vorxo9556E/1OvAtR06vYmfV/f0V/NF4h6mkgHtP7HGkInrKhw+tcFAF6/LLpNDvWhFdXDo5AaViWNg6Ow371nE5+BVI5DwMUfrE+YZrAscOrlerSbeDNQMOxOQgsFoQDvmfKoycdENVBAgqA98wmJFNj/uXjyd8i+ncQn5vjHvU/vR73J1Bpjs+ulvqkxfNIK0D3tsrepElJ3apBcIPH1NcbhyQVlHyU1X1mAKc/W/8RtXFabvVt1UyoQULpg4xoJ++qRuLEjyeEsoCdXr+ihvns3UIFomjkzYg+dmKPMNbdLW7DA+4bF8rUBYsqAS7kPyXuW3bq5RTHQMz8a+vPbSEWaqKKgZY9Lm6Kmnn6Klvy2llatW0cyZM3mVzMxMeu+9981VL3ZeyZAv9rDlq2F2dg6tZ/bilZl7rjdj6HFxsQRd1uBBj9GOHbscqnu/E1eelZNKN2/dMBg6J+8SP3d38zTIr84WLYUO9PCpjQZld/oE8xJ68TMX9ptM50yq/s3Bu1otpkZKM6mDRVEt5bKFYEFYFM1nawnFJZ/aClNA+7ZPv2W1G7+IegYLklB3bJj+NnV/fSZ7GNRQddZQu0D9Yo5gARHVugeFt+hEHl6+VNXD1PRWPFi07W/omNbNQoV53dLo0W/qrCmqssVNY8pMOmacRReP7CHBgKESKcnCp7u3H++/Zq0w6jtpvslYwlO0OrNEMUe7F3xBWDvw8AkgLNDi4dKK6dtTjyTQltkTzDVhAsA1ng/XfHtJmCyiXT4zkDBH9evVp6Ag/XzBxL+YMoUuXFAeSubaFCdPMnKGGkyBDjHnH0EbN22h/g8/xG5ALWrVqiUlnjhBYPZ3K+UxnbEx3Wa6enMESxdB0KeXJ6pZTfmjY045BXoGLOaYr7E84RJ5qihRjngzMV7YvcUcVwRVIvv/zKItjmAcgrA4aI0qs/gaxgSJ/OiqRVyPjrJLjHFC7WKOoDLpPn66+gYg6uAateRa1V17ytM3mZs8CFY8IK2Fym3dA1+YyfEKuq+rV/TqNJFfyKR0QdUCgorNyGFjrrUzt4qfznZcjCuO5/ZsFEmC2qdut0f5YmwQWwuIbtuTSfkr1HKROH78ODVp2pTwVi7irIiyoo71dfpu1EvYvdts9YkTJlItxkcQV2XMM2M4U3//gw/I19eXFixYYLZNcTIlI7eA2qrVa2jokEG8NCoqivbtM5UALTQt8+zKOgsERwwME0NBVUrBgUP0XZzjzVsK40FbWP8YkxaHm2whtKwJi4UgqEOWvjbA7uFdGNON6/iQ2s4nIo68a0dTVvIpNU8kWgx6SWXiiWxx9MTGZVSQzd6ymK4XTNCcRCvaqkc71/Aru7iqTdWE5rd3uwTeyLc0b4zQfx9ePk8doriJYyt/onpdBnBVFtQx5hj5vv376dGBA/kQsbGxBL23rVQnLo5XvXHjpkU3+6wrWYQP+l29ejWt37CB69T7M/d+RzJyqSO3cNfy8vLVkpo1TF9Z1cIySgjpyRxzrcEWSx1FWtt135p66dxR/Zekn7wCvdoD9ufGVL2ar5qVZUatohaWUuJKShLvGTraSpXtl+7bjXqbLxziQXAtL0fRlz87gTEiU6k6oE5jPhYWSQ/8OYe5wzNpWWddVTMoTH+FOusofUbxU54+pph7+gWqHeamFa0uQAwWcwTVknCj9+TxUszVsj/veqHyP/aoaf4/smvnLrXThvHKwqeaUUQiPEJ5A8vO1v8urTWBL8oZXdwnby8va1XtLpOM3AJk0VGRakl2To6avlOJPJ3aAA4+WoJkGmLG1ltbx5504bU8bjqINvfG66VDW/tAexAcghxNsCyAjTmoQWQ7k+7ra/KycsteLZR55qg6p9iOfdS0LQmYHQrHoIRFU5lL+Xi+KAuLEDB4YxILi9eZ9YoxxXXoa5zlkHPYkLOni0FfEc07qed5TDVkia6xUBegwLhGlqpQrs5ZKpSZappT7VhsaKEAFixu1RWGmZ+dYbZWVtZlplpV1GsNGsabrWMpU9iPp6TY7n+QdCaJd1ccnbyleSDfqRg59FyezL0eH3eNDtLTU8lDfmWdiywufsjgx6h9u7ZUrVo1nKoUExNNXbp0Vs8TE0+q6TuVyLySzIeuG9GaEGgLBHO5zi1Z8B5dxESe6YCv9Qk/8l7gDNSp+VAuGYpuq7p6UK/2L1BYUAORZXDEwioINt31mGmli7nXcYMW9p3sOvInbxAe3JDqReqtF/y9a1PbJo/wMpgz5jEv17ImqECEvXL8A0MIjkFawmJdvfsf4WZy2nyY+jVk5nugCwd30Nnd67iFxt4lX/I8MHgwei0JS5NwZrIHZi8oslVXCm1q+pAT5SU5Qod9z4Axahfwvgxteh8/h3eltfC0OTrvTx+2yBuuYf5qZyyx55ev+KmLm7tqtaMtR3RDWPOENe+oZmMxE+aWwFBLXqFR1Pmlj9XfbnKCXn+urYf00aPK+hhip9hKsB+vWbMmr750qWOcoWwd21w9U0WjuVp3Sd7AR/ur4GqnDOsTQdu371StUGDI37hxQ/6BSR4WPeEQpGX2CXv2kvDyFH3ciSM8PZvVe4D/MAc/MIGymR23a2U37n6OBS5haeKIue07vopFMOxCQcw9/17m/dm0Xg+6xFzZq1RxIz+2GIqxjp42vwh38txuunbjKrcu6dvhZS5VisXWxasmGpgtRgQ1ou5tR6tTrqaT4uH0M6r/VDX/fNoxWrZpGj9POLKcWsX349fdt+O/6T4W/vcm0+vDJl7Q2l0/iGSZH3f8+Cl1Gzedm+LBMQg23GC6WJyENQqwQ0ApQdBnd3juA34KdcqOuZNFEZ3e+g+zB29DgXWbckaflniA6ctP8PJTG5dTgweHcCbeh4WLzcu4wC02YKWC/oWFh9qZgxJRzJU/tEk77jykhIyFRucW7V/6rdUR9i2dzWKfTOX23S2YrX3zQS8yxs8eXIe20/YfPuZt8RCEfTvsyeF81HvCj8x5KpP3jzAH4pouJu5Tx4J5JayFYDePeeDaKzELFO3C6ZWU06oDltpQk5jJwtZOnz6DPFkY6549e9KKFaaLoprqPPmvl17iR6hL7Iklnq97M3F1NbPeYDyIHedOJZHrVIRWL/82i1UsCF6bN5k+EgTmDYleMHE4A61dt4G2bdshqpfOUTfpW/hVWyG4j6/aof+zwIkIpoNb9v1MB06u4y3xMNKSuFZjSwbUseatirK5y98kOBGhLUz+wNTh6ANGBC/UDAsRCsHE5/w5nmCfDc9L1AdjxsfVSDp3Z+Z+8KwUH2FaiPmJPBwR50UQrE5mL31RdSLi5Tomjocb4pinXTojqitHqz8M/e+BLVMativGWV5mGi1//0nKOHWYtwYDrxEYyl/xgQVsr4VXJyq0ZtIkmDlw3vjluyZ24Vu//1C1R7/v2fdV1QYWBJNYnBRBCA4FJo6HwerJY0U2aa1y1N+BsFjS/V7UfLS6XYm3NQcZHizioSSYOEwY134+jjkwWdePI7jVBmYPD8scjAcssJagfZvAwLsXfkG75k/hDBnl8IZFHBkwcbRDfJf0xIN8jvhKPbRLxQd9AkvBxLHWkLjhd66mUhuYSezetVsNXTtqtF6wMFOVZ3l7+5BwJPrjj98tVTObf+7cOZ4PRg6p3lFUKTIqVvtLdlS/d1U/cAbCa5IHsx2/WljIVqAvU25urs3X0EC3SHL4kP4HZnNjOysiWFSATzg3HUvNPMV/3HZ2YXd1qElglgjGfJlt+nAn1BbmJg3GH+gbyaXfjMvnSmQDbq7/kuZhwdMrJIpqBARTYX4O5VxMsWgTXtyx8KDwCa/DAmC5sofHEcbIs4vblcV2sIABgzzKrEAOr5jPGGsgV2VkM8ci4yBgFjspRgF03N7MccqliisLIZDG8DtrEjZAdOvGJPYaASHMs9OXYD2TnZbMHy7W1D2iLY6tWrWiKV98wbOGDxtGMEu0RO+88w492KsXwYno/i5d2H9R0bFbqq/NDwkJoSW//MIeZMoDM4etv+Xl5VK/h/ppq9mddirVit1Xr2tw5Uo22+XD8X+A4s7HWjssJiZf1Nu8W6vrqDJEFDQXVdBR/Re3H0j/yWn6Bcbi9lNa7bC5AlQhQh1SGuNAdeOIGCf2zA1MFZ/Spqss6iEiRtpChTlZhE9xafv27QTJPJ4tePbu3Yc++0yv4jLusyGTpMHEp075wi4mjn7Onz9Pkz/9lNmUP8M9yaHetSdWi/FcxLlk5AIJeZQISAQqNALPP/+cTdc/kG0LVxL6+eefCR+QFzNDtGczHEvjSkZuCRmZLxGQCEgEShkB7Pdpz56flqYjGbklZGS+REAiwBE4x0z3sLh5SWMnL6EpXwhIRl6+7oecjUSg3CGw5+eZ5W5OckKGCDiV+aHhpckziYBEQCJQMRCQEnnFuM/yKiUCdy0C8O8AOWrf3DsBhHA0hKmiPeaKts5VSuS2IiXrSQRsQAAOZfAQNP7Y0LRMqri4VCIPjyoGHzc3+wN8lclk2SBdu3WjDRs30rr163mY2bIa19HjfPTRR/w65s2b7+iueX9OK5H7+/szsx4lhkqSLuKYrQjGxcYwJwQXHkznxIk7H2fF1nnLencegf79H6ZRTz9pMpGnR42hc+eSTfLLOmPCuGZUv463wbDXb9yigU+vNcgrLyfjXnuNT2Xnzp02SbKTetWjDrFKpMMB3+6iizn6cAjaa6pSuRI1C/OipqFeFOzlTp6ulelc1lU6eD6b1p3I1FY1m67pXoWWj2nFy3acyaKxSw+ZrScyEQKgXfv2FBkVSZ07dWJe4+tEkUOOTsfIIyLCqV3b1uTtrf+xzv7me5tfyxB7BYG0QHBVl4zcIb+zCtNJZkaG6hVchXkkursrG0iI0A93GoiU1HwKC1UEHHfGjKowCb280hNPPEE1dIGprDnoaOdfhbn1C2K82iKter4tVdFX1de7J4QuF1ynVxhjPp6mRGzUF+pTlTVRIG3ZXOjUqZN0ju0JGsb29nxt/HiHM3Jzl6Kf7V2UCgwMpOHDBlOvB3saMHF7LgFbN7Vt09qeJrKuRMAAgbXr1tOARx7jn9fGjTcoKw8n0789QsOe38A//6y9828I1jB5fNDjvBgxvEUcb2v17SmrXEmJTHIhu5B2J2fRnuQrdOOWkufj4UrTHmlE1ao6Vs79ctYsPkUfHx9q2dIwMqY9czdX17EzNTdCGeVFhIepHlI5ObmUnZNNoSyugT3Uvfv9PGgWgk+VFwnKnvnLuhIBZ0EAO857eSlv1TNmTHf4Zb217BjtOptF+dcN46SM6xpLfeJrMVWLC/WOD6RFe847bOxVK1fS66+/zsNmP/PsswR1kaPIaRg5mG9WVhZt2ryVzp49R02aNLaLkUdFRfL6WBk/dTqJ6tWt4yiMK1w/9evXo1b3tqQ6derwsMDQDf/+xx905sxZs1jEsjWJDvfdRzgi6uTBQ4do1ao1dPnyZZP68fHxVLdOHF1ITWUbY++kNq1bUYcO95GXtxcdYfuuzpu/kPdh0pBl4OHct29vasj68PPz4+GJ0c/fK/7h+7Kaa4O81myMli1aUFhYbcq8dIn27z9A//yz0iadraU+zeVjs4FOnToqv93QEEJ0zm3bttPWrdvMVS/zvOiIGtSuJdt/MrIGw/gmHU7MonWbUikr+5rFudSP86aObYIovHY1OnYim9ZsPs9wu00NWH523nXakZButm0vFpQKhNDS69lCp6Npw0nzevCvt5zljBzjNQqp6VBGjj63bd1K93ftyv4byjZxyHMEOQ0j352wR40zbi8wMA3qen9n3mz1mnUEPbsk+xGApcb7773D4rsbhufEQ7V37wdp2bK/6IupSlxx0fuLLzzPy8Q5jmCcT4wcQZ98MpnpEg3/xCOGD+WMLiMjk/KeyKOIcP29atqkCeurFw0f8aRJDHlEt5w753tVZ60drw9r8/Xsb1n8iyXabFbXnT799COKY3s5aqlL50705BMj6dX/vGbx4aStb0s6KiqSPv7oQxaFs4ZaHQ+cnj26s/0ej9Nr417ngZrUwjJOPDO8HvXoYrj1X8t7AmjogFia8tUh2rjddEemkY/H0UM99fcHi6wPPRBOJ5OyKTaqJhUW3qTHx6wzeyVxsQqjQ3TAsqQrBdfoFlsbgw78XFaBw4dOTEzkjNzVtSr/fSH4liPIaXTkJQGjU8f7CPGB09LS6DSTxiUVD4GvvpyhMnG8HUGS3LhxE4/4hh5DaxuqugY9/pjKxK9eLeT19+zdy2Jo3+KmZuPHv0ahoYbMQ8zM39+PM3FEk8PG2GgDQiS5p596UlRTj+PH/Udl4nhjW7lylcHcEMLYmP43aaLKxNPT02nDho2UmKhs7ACGO+Xz/zNuUqxz6ExnTJ/KmTgW2A+zNwvM78yZM7y/uuztcNKkCcXq2xGNHukdqTLxq4W3uBS9//Alhvltdp8q0dhnG1JIkKfBUJ3bB6tMHAwbkveBo8obFph4URQUEsSrpF20L8riVY2qROi8ixpLlEf5etLn/RtyJo68pfuV3a5EufYIZi+o8Lo+LfIsHQ+xt01BTZs2FckSH51GIi8uErVqBfLXHPyB/lm5urjdVPh2/R/uRwEBARyHTZs204SJkwwwadu2DUXqNqtFAdQcjzNGDsIOTEOHjWRxmfP4OVQz//fZpzxm8yuvvExjx/6H5xt/rVm7jj766BOeDbXEooXzOCNvy6yWtJI/ypo3b8br7d6dQG+8+bZBV1CZiA1GRAHyGjSoz0+PHj1GL708VhTRsKFDaOjQwcwW250GDnyEFi9WItmpFexMvPXm6xwP/AZfeXUcaf/sY8e+TD26d6P4Bg0IaiVtmZ3DFKt6ZWb6MaBPFG9bUHCDnh67mfLZEVQ31ov+92YLdp+IXniqPr3x3908H1/DHlHeYq5dv0XP/GeLqn7p1DaIXhodr9azlKhRXXkzEXtcWqpnnP/OX8cIH1vppQ7R1Cbah/w9mYWRq96e/tcDqRZNF9F39tUb1H7KZluHUesdPqxsOIKMxk2aMtWZY9RmFV4if6Bndw7ywYOHKDu7bF/j1LvrBIkBA/rzq4Bk/d9JH5pc0ZYtW2n+goVqPnSEwjTvl1+WqkwcFY4cOUonTir2+/Xq1lXbaBNgelOmTFWz4C23U7cjuvEerHhooD7InHcgdPiQ7LXUt09v9fTTyZ+paSTm/jhP7acb03eWhDC3hiwGNmgtezAZM+pZs75S596jR7eSDFWstrFRNdhOVAqb+P1vtnmHjomjs2MnrtCpM0oc/zrRXmr/Naq7ko93VX6+duMFlYkjY92WVMrJVR4EagOjRHBwiGpscFL3OzCq4rDT+kHVqTazI9cy8SX7L9DkNcrvz2ED6TqCsCI2e65fz/xvuzhjVmiJvFWrltwDDwtsm7c45slYnJvgDG2wyxJo3369msPadUVHR6vFq9esVdMiAaYM3TSkaXyM3ZoLCgpMdMapFxU9LdY8tIT7C6ewqKhIasPMS7+cNZ22MLXP5s1bLPoJCJUOGD8YvTFBPYPFWa2/gnEdW85jNDhgobN9e9ONk8VuMrExMbZ06dA6kWF6nT2YsDElHMikmMiaXMUCNQsWMqPCq6vVtiWYqkbOJudSfD29n4daWZcoYG9ogtzZRsylSbO2JFGEjwd5M5PDxsE1qVWkDw1oHExtI33puZ/2U3qu5YXc4s4Lbzkg7EbmKKqwEjl0qc3uUXRUa9auV3WsjgK2IvUDRis2k71w/oJNl65dpLyoY8Dahmlp6eppVFSkmhaJ/HzThShjZi/q4vj17G9Uxh8ZGUmDmY3y9Glf0M8/LVT19Nr6/gH+/LTAwmIU1gBA1aoZ6oZ5ph1fUCMJgnSOuCLGH1EuMBbnZXEMC6mmDpOWYYp5eoaeGUXUVhi4OKLhhYt6piw6ysmzzhyzrmRxaxXUj2EPy9KkvcnZ9NuBi/TDjmR65bfD9OziA3y44Jpu9Nr9jh/b19dXfdvQqllKeo2GoktJe7uL2gcHB6n75nXp3JHwESQkOkhCo55+gmfPmTuPrbJb/wGK9hXtqGWgVau62nT5V9mmvYLMSdxapmWOaYu2th6hG3+4/6M0aNBj1JGZK4aFhfE/FB7osJzBTi3z5i1Qu7t+7TpPuzDmao4QwgGkvXZz9YrKy9NIn+PGvUF79+l3iC+qbVmUF167qQ4DiRsLnFpyZa7tgvILlLpa1Uk1pntmsqeowo9a70uDAs0JNluAiWhttlZRlnTgQjYlnLvC3ffvYe77jibthst79+xxWPf6u+CwLu++jsA0tB/xKosrEfmVKyt/3Lvv6spmxtCNg8JtNN3UeupppXMxW60zl7H+WtSx9wjLFjDr0WOeo959+tHMWV+qb2Iw89MSLJhA8PY1R36+fjxbLNCaq4Nd3AVV1y3eiXNx1OrEQ5jtuL0Uy9RPP8yZo34mT55scxc6Qx/2QFNe9c01hBpEUHioXmUi8kJq6d9IUtMU6fvUGf1aU6RGzSLaBPi5iaTFY3KKos4K9FcW0C1WLIWCS/mKwKbVmztqmHr1lQV09OdIibzCMnKYGS5hi2zmPtB/grBAJsqhk5VkGQHB+BqwHypstouiY8cT1Sr9+/dT0yLRrl0bnjS3OCnqlOQISXrp0t+56SL6QZA1LQnTP7wtwLlJS7Avr11bMYuEWaIlQmwNQe3btxVJg2Nq6kX1YfIQc1ayl6DLr8sWhMWn5b332tyFUHu4MEYOZx9zdCJJz5T7dA8zqdKquYIbrFMEJV/IUyX3Xl0N20CCDzPzQBBtxTGR2c6DqlWvrqoiRFlpHmGBg0BaoIJr+mty1Jj1dYwc/KSkb3PaOTkVI4du0ZNJUPi4u+mf+p6eSh7yoYcEYQHsIrNRNffJ1ZnBoZ4oR1qSZQSmTpvOC4HvzBnTGGNUJFZkIg9mdOOYLbeglJQUbrePcyzyaZ2IhgwZpJoyrl+/QTQp9hF22tOmTiGYQGoJ1i3CYsR438TFPy1RGeyrr75i8HCCfbn4Hc2dO1/bpUEazh7iQdS9W1fVBNKgEjtZvnwFz4Lu/sUXnzcoxjh9+/ZhzkzfUVBQLYOykp4Iu270869RDSgoUC9di77PsyBb6ZmKENO+dS2DRcqBD0WRv6+yGLlZ4xAE9cuuvRm8Czwghj0ay/CqRAiX+8m7LXla9G/puHDhQl6E6x80aLClasXKH9g0hL5+rAl1iPEjPMQEYcHz074NyL+6YnGDGCyOJAgFLZiHMChh925Hdk1OpSMf+Gh/gz+cQGow04sK2r59Z7E9QEUf8miKANzW4U4Or0ww8R/n/kCIeXPr1k1+T/CHNNb/Tp06gyZMeI8zxU8+/pCbf7q6Ila2os6Ae/aMmV+aDmZnDvqLi4uld995iy+iZWVd4QuKWi/KDz/8xKBX2LaDwcIjFfVgow5mjx3Phf4eLvQ7ioiX8cuvS+nxxwbydpP+O0F9OMyZ8yMtWLiIjzlj5ixmrdKWW8D07vUg9+bMzs5moZSrUA2NRCpwMZhoCU7OpeQx88EcLo1jgXLmx21USfq5cVvoYrqi2/7yh+P01tgmnOlNHN+ccphrPfTcHu6KuvEGs1T5ep4iQYvpzJpzlJrE+3Lm3b9XBD38YAS3N0f5TTgSaRioaKM9JrO3GREtcAiz258370dtcYnSCEELs8NJvZWFZuFEpFWlIO/DVYrzV4kG0zQeNmwYD1mBrGnTp2lKSp50KolcZypsFZXbZLhYY7ayLR2ZbVixM9997wOudwYDxjoDGCDM88DEIZ1u3LDJACAwQTjnCDdl1BfMCqqaESOfMnG1F/fv9m3T117jhTgxGPTYIm4LFrLxoBFMHK+3ixb9ZPKQQVu8ZcyZ+yNnvrgGSPaCie/atZvp2p8VQ1g8fvfdD7Rw0WIqKFCYIvrBx81NkfrQEHMYPGQ4iymygavzMEdYN3gxFRXqQrefeOIEZWZmmoxzUyi6TUpsyxg/YRftPXiJEJMcBMkZn0qV9Kxh9/4M+mDyXu5Sjzo1qrmqTBzS+jOvbmbXZ2gbfjnrGo1m+cnnFTULVBZg+PsOXaLNO5T1B0v3C2OARLRAYOHIaIGHU3MoLVdZ08E4YOBaJr416RINmpNAWSycrSNp0OBBvDuo7U6fOu3IrqlSZFSsDZzNoWM6XWcN4hvyazp86KDTXVtxLwges40bN+YSyKlTp3i8EGt9wYqocaNGXBWxOyGhVJyzoNuOj29AwUFBPJ4GFlyPs9gXULNZIzBTSPR1WRCwFOY4hLePotpY66+ospiYaIJZIixnktifHmEBRAiCotqWdnlQoAc1rOtDsGbZy5hyTq517MR8PNmuRMKZaNKbzQnBtKCjf27cVlHF7PGnJUt4DO9jx47RiOHDzdYpbiYiHEb4elCtGm78DSGFbSxx+lI+FeoeasXt11y71m3a0Oeff86LcB24HkeSZOQOQFMycgeAKLtwOgSEg5D2wlzZbg4LvuzEHYh27kmnSVP2a4tN0rDymMXieOOtpTvb9s2RC4Qmg5VixvsffEAdO3bkLvnjx41z+EiSkTsAUsnIHQCi7MLpEFjybRc6x1QrG7al0ilm/QJp/rF+0eRdsypTIRFXvWRkKiqgXS9aAAAfvklEQVQnp7v4Mr4gp1rsLGPs5HASAYmAFQSga8ciqgigJaqCif+45ARJJi4QKflRMvKSYyh7kAhIBMwgMP2bI9S6RSCXxKEjz2ZxS2Aps3DpKUq5YOq6b6YLmWUjApKR2wiUrCYRkAjYh8CqjecJH0mlj4Dexqj0x5IjSAQkAhIBiUApICAZeSmAKruUCEgEJAJliYBk5GWJthxLIiARkAiUAgJSR14KoBbVZYcOHbgH45mzZ+lMUhLzilNiWRTVTpZLBCQCEgFzCEhGbg6VUs57+513+N6SYph9LAb1mNGjxak8SgQkAhIBuxBw8fbxfc+uFndJZYQlDQwM4LE+ECTJHCFuRp06sTz2BuJvmPsg8FNR3mQBgYG8+/R0JYaEubG0eYi1jRC5iL6HOQQxl3HEAzl4ULr4a3GSaYmARMA2BJxOIo9gGxu0Y7uoa/dSnP3N92o4US0s3t5ebGegTtosk/Sf+X+RiE9uUljMjA8//JC3RAyPdevX80h8bdlejQsWLChmj7KZREAiUJERcBpGHsik4p49uvJwocW5oYVsI1Rz0djEzjfF6bOoNgiEhP0qse1YgF/Z74RS1PxkuURAInB3IOA0jDwiPExl4lCHZOdkk3a7sKJux4KFP5mETC2qjSPKC3V7V7qwONySJAISAYlAcRBwGu4B6RY7m2/avJWrQpo0aWwXIy8OeLKNREAiIBEoDwg4DSPfnbDnrt75x02zNV15+GHIOUgEJAJ3DwJOw8hLCvkjA/qxXVvc2KLodS7ZHzlylG064NitnszN8UpWNs8OYFY22BkGu+tIkghIBCQC9iAgPTt1aIm9GKtV86TQ0BDq2rULDWC7u8OypDTpoG5XIWyNNmLkiNIcSvYtEZAIOCkCpculyjlo0KtDAj527Dht2LiJ1qxZx7bxOsjsxpX9C7FdWbt2bUr1Kr768kt126dRo0bT2rXr6LfffqOJEyeW6riyc4mARMB5EKjQqpXMzEv01dffGt5NxtR37NzF9gccwp11GjWMp61bt5eaygPORtOmTqWXx/6bYqJjyMPTg3/EJsOGk5NnEgGJgETAFIEKzchN4VByrl27xpl3hw7teQb01xdSUy1VL1F+k8ZN2G7t03gfBfkFbBf6GXxzX3M7ppdoINlYIiARcFoEJCO3cGtTmaOOIP+A0mPkg4cOEcPQyy+9RPv271PPZUIiIBGQCNiCQIXWkVsDyMPDQy2+erX0NogNDg7m4yAComTiKuQyIRGQCNiBgGTkFsBqGN9ALTl//oKadnQCG9SCMjIzHd217E8iIBGoIAg4lWqlatWqVMXFhd86d42DjSdbQBT5V3lMFcUqpd9DfSjl/Hnat++AGlQL5oZt2rSiqKhI3k9OTg6PTMhP5JdEQCIgESiHCDgVIx/4aH+qWbOmCcyDBz2m5m3fvlP1AA1guu+QkGBq2aI5Nzm8desmt1QRlRFq9s8//xKnpXL09KzG+73NTCElSQQkAhKB4iDgVIyc8d0iSWvWB3VGMIsFDnJxqcw/ooP09Az6+5+VlJ2dI7IcfvTy8mIx02vxfs+zNwNJEgGJgESgOAg4FSOfN3+hXRj8+uvv3C0e5oXVq1ejSkytksMYd3pGRqnZjWOCM2fOpJjYWL5LEDw6QSv+Kl3Jnw8ivyQCEgGnRMCpGHlx7hA8O0vLRtzSfGLj4tSt3mAR8/tvv9OKFSssVZf5EgGJgETAKgIVnpFbRaeUCocMHsR7TktLL6URZLcSAYlARUJAMvI7cLclA78DoMshJQJOjIC0I3fimysvTSIgEagYCEhGXjHus7xKiYBEwIkRkIzciW+uvDSJgESgYiAgGXnFuM/yKiUCEgEnRkAycie+ufLSJAISgYqBgNNarfjrnHxwG5OSzhR5NxGnBVu84QM3/9zcXEpOTuFtsZOQJImAREAiUF4RcDpGHhERTu3atiZvb28V89nffK8GxVIzNYnw8DB68IEeJvtzIgLi8eOJtGr1Wk1tmZQISAQkAuULAadh5IGBgdSzR1fmal/dLoTr1Imjrvd35m0QJCs7O5suZ12h6tWqkZ+frwlzt6tzWVkiIBGQCJQBAk7DyCOYVC2YeE5OLmXnZFNoyP+3dyVwVVVbf5WaihkoijmD4AQopJZjmK8cQSvTnqKmaQ6lppWlDVZqr+81WDnbe5aW5fgszLGvwbGUEGdFJRNUHFARMfWpqW//9737cLjjuXAvXC9r/X7Xs8/ea69z7v/KOvusvYZqTiF8sE0ryYNQ/f8s+5ayss5rc2BuQQ4WJkaAEWAEvBkBn1HksGNnZ2fT5l+20NGjxygqqrFTRR4aWodKm/OWr1ixOo8Sx4+G2p1ZWde8+ffje2MEGAFGgHxGkSdv36HlGTf6u0aEN5Ssly5dLvTEWUbvkfkYAUaAEXCGgM8ocmdf1Na4MpsgFzg2PCMjI0R+8ipiJX6dzmVl0ZYtW+n8+WxbU7mPEWAEGAGvQaBYK3JVYNk/wJ/iYjtrPwrMLeXL302wu69bv5EOHDiojXGDEWAEGAFvQ6BYK/JSpUrJ3yOocmWCx8pvSdvoRMZJqiRKwLVq2UJWDGob8yAdPvwHXb9+3dt+O74fRoARYAQkAhzZaf6PsHXrb5ScvEPayvfs2Uur15gKPaAEXFRUI/7vwggwAoyA1yJQrBU5XA4VHRSBP3o6duy4Vu4tMDBQP8RtRoARYAS8CoFircivXr0qfwwcL1++bPXDoAwbyF+E7DMxAowAI+CtCBRrRX7JrLwR+HOnKLxsSSVLmrYQlMK3HOdzRoARYAS8AQFr7eUNd1VI95CaelheCZXsa9askeeqZcqUIXxAWedzoz3zMPEJI8AIMAJegIBPKXKsrP3KlpWfMuaITWDs52fqw5h+5Z2SckB6q4CnRfMHSK3AwdOxwyPolpSa+rtq8pERYAQYAa9D4I7gkLBbXndX+byhvn16yRS0jqYnJibliQBt/sD91LTpfXLKjRs3ZfpaBAqVKFFC9iGV7XcrVjkSSeERkXJ8/769Dvl4kBFgBBgBTyDgU37kwhXcKd2ivEyJvyURNjVbtmwu/cb9/XM3NveLFfvGjZudymQGRoARYASKEgGfWpEXFEh/f3+qLIKBUFTizJmzdOPGDUMieUVuCCZmYgQYAQ8h4FMr8oJidOHCBcKHiRFgBBiB2wkBn9rsvJ2A53tlBBgBRsBdCLAidxeSLIcRYAQYgSJCgBV5EQHPl2UEGAFGwF0IsCJ3F5IshxFgBBiBIkKAFXkRAc+XZQQYAUbAXQiwIncXkiynWCCA6F97uXn0AICnVKm79F3cZgQ8hgArco9By4KdIYBUCH5+flYfZ/OKajwgoAJt3LRJfu6//367t1GuXDnJs2nzJoqOjrbLxwOMgLsQ8Fk/8kqVKpGqyZmWlm4Trzp1QsTqylQlyCaDuTMz8wxlZXHiLEcY5Wese/fHafAzA62mPjN4KB07dtyq310d1atXp4gIU+Ht7aJo99mz5wyJnvSPSTJXT05ODiUmJtqdc+nSJTooygPWb1CfJk6cSN26dbPLywOMgDsQ8DlFXrt2LWrdqgUFBARo+Mz5bJ4oqHxNO1eN9o88LMPy1bm94959+zlU3x44Beg/d/asjKKFiJIlS4lsk6WlNH1iswKIt5pat25dGjVqBNUNC9PG5nz2OS1dukw7t9cIEQ/9+5uZVuGLFy+yx6b1T502hWbMmElBVapQl9hYWr3Kcb4ebSI3GIF8IOAzijwoKIg6dXxErMLvNgxDTs4FoTzK2uSHjRNl3kDp6Udt8nBnwRBYt36DKG69QQqpX78eTZ3yccEE2pmN1AuTP3zfKlWxHXab3SOGj5D9qCr1xbwvbPLoO5O3JdO5c+cI1aUGDRrEilwPDrfdjoDPKHJUvFdK/OLFPynnYg5Vr1bNIWALFy21O941rov8w8cfLityuzDdFgM1hClF5ZtHEW2YU5qLtMVGCRuczVu0lOzrfv5ZKwHobP78L7+k0S+8QDDl1KpVi44e5QWBM8x4PH8I+Iwiv3nzJmVnZ9PmX7aIP5hjomByY6eK3B5kpUqVoho1qsvhQxa1PO3NyU8/zEBt2rSmiPBwmRd9nzDhrP3+eyt7/H33RVNIcDBdu36NVq5cbXWpChUqULuH2sr+pG3b8tiXURyjU6cOVL9+fQoKqkyX/rxEB4T9dsvWrXTkSFoeWVi5Pvy3dnRB2IBh5+3WNY7OilXlokVLRIbIK9SnTzzVrFGDtm5NpG++TdDmAq+ucbHy/Pv//4Hq1atLf2vXjqpUCSIUskZfZmamxu+OBtIMPyS+s/ydq1cjpBvGfW3ZstVK/F83/pIZLhOWf0dffvmV/G1dUeRNmzYVph9TWuOvFyywkm+vY8mSJTRq9GhC4ZLYuDiaNXOmPVbuZwQKhIDPKPJkscrCxx3UqFGE/OODrB07drlDpJWM50eOoNjYznn6mzVrSn37xtMHH0zWTA5gqFq1Kg0dOljy1qpZk2bO+jTPvE8+nkz33luF8DDbmvibNta5cycaPWqkdq4aUGL9+/eTD4Vp02eobmrcKFK7jtYpGm1jYsQq9Lr2xgPlWTGwIs2Z87lkq1y5sjavRYvmUrmq+eCNj+9Fb789kZAy2B0UEhJM77/3T5F7vrwmLjIiQpjWOtDBg4folbGvSsWtBtH36GNPqFOXj1HRpnz1mJh66JDh+fg9kCK5rCho0qBBA8PzmJERcBUBkxHY1Vk+zt8o0lQo4sKFHLk6dffXfeP1VzUlfvHiRbGRukmuJvHaj5Xm2LEvE1brilavXkNJSdvk6aOPdsujKEeOHC6VOAanTptBJ06cUNMIK3UQNnpRDemHH36k9cImff68yQMnTpiPnh02VOPXN5DKF282IGxCwmyVlpYmFJOpYDU2im0RFDfMUVDaMGFAmWHzcsKEt/IoXltzjfThO82cMU3KuiUS0O/fnyK/V3p6upwOW/u7704yIsowT8OGJiUMHI2mNlbCFda1hOmPiRHwFAI+syJ3F0BBYnVZrpyfFAezgLsJtlqYU0Awcbzw4hip7HCOFeaihV9LZf7G66/R4CHD0C3pLbGiXbjwK/K/5x6aOOFt6h3fl+oJL4y42C5yHIpzzZq1Zm7TYceOHdLchAeBJSV8+x+5UuzQ4RGaNTvvCh+8AwcNkSl9FR8eEEOHDRfVlJrQu8IND2YYWwTFPezZ4Zp5p3HjRvTB+/+UbzjDhg6h98XbRkEID0E8GKDEXxozlvbt26eJe/HF0aJEX3tpqooQK3T9mMaUj0bt2rXlrGzzA9AVERknMqia2KsJDKzkyjTmZQRcQoBX5BZwNTGXfZOrPbGKdTcN6P+UVGpQeGPHvaYpcVwnJ+ci/frrFnlJZaNX18dK8KWXXpb8WCF//NEHYpX7phzG3sCECdarUKzCbSlxTEo0m2BUgWl1HRxxbyovO95KQKdOnZbH1NRUeYTd15ab4O49ezQlDsbdu/dobwkPiLJ6BSFcLzIyQopYt269laKePftfWg3Wjh3bF+RSeeZWrFhRnp/KNGGQZ9DJSbp5H4IjPZ0AxcMFQoBX5Dr4YNYINps0EJACE4G7qab5FRtKaemShVbi4SEBwjjMK3qPGdzTjBmzCOaUYLH5CYLSffGlV+y+8mOVD/NJuNhQRRsbkyBVk9SWMoZMRcr/HrZe0KVLl9UQlS9fXlP4qjMpKVk1tSMeKFiVIoqzIBRap442HRud6s1G6xQNPGBAYaGh8uiOfxQed+Uj5P4uXRHwmzeNVZxyxz2zjOKFACty3e8dHt5QW2Xu2OmZTc5A8+oOl8UqzRHdfXfuZp7iW7lqNT3++GOaV83KlasoIyNDDec5PiDCyLFqt1TWeNtQCi/PBPMJxhUp5QP7PUhvI1YPBcWL4+lTp/Snsp1lNkng4YGPXoYVs4MOZasGC76TI/xs3ZsD0Q6HMk9nUnBIsPD6CXLIZ2uwdrDJLHPl8pV8f29bcrmPEdAjwIpch0ZUY9MmJ1ahGRm5m4Y6lgI31Sr/5MlTNODpQS7LU+52amIHYROe98V86S6o+tTxdbM9GYpz/vyvabWwoSuTSY8nutPgwc6vr9PpSqzDoy0Fqn9o6B8SDgXZGLx0OfdtYOzY12jnLs88bC0vfSTtiFTk94j9CVepalVTLEPmmUxXpzI/I2AYAbaRm6GqWLGCMD2Y/lBTUg4aBtBVRuVPrfLAuDIfyZgmCu8PKMYrV66Y7eVlZNSipZywsFAt5H3q1Om0cNFiTYmDV23goW25YkdffgnBL5Z0rwhTB+EhpswUljw3b+Sac2y9iYBfv3lZTfiOFxbt379fXgpmL1t7Co7uo0KAaVMYHj9MjICnEGBFbka2aZNcX+Gdu3Z7Cm9KTT0sZcO+3EAkVXKFPpr8vlQkWNWOGv0SfT53npweEhJMz1gkn9J7lcCV0JLatGll2eWW85iYB63k4C0CBFdLe3Ts+HFtyN69YcNVPQge7Ran8Xu6sT051+7vSjZD+I+rVLYp5oeBp++V5RdPBHxKkcNm6if+ePApo9tk8vMz9aHf1uoTfXXMG2nnzmXZNFO4678HkjQp88o/3plIWDnrCZuCb781nsa/8Zq+WwbcqA3OuXO/EJug6TLZEzYSQT17PEHRUVHaHLg2KurXr0+ezU24DxZ041HJtjzCX7pLl9xAJwQe4aEFWiHs+fYIm6lqY7VD+0ekm6Mt3tWr18puYIFNXz3hd+zWrSvN/3Ku5luvxrGSho0bH2TGVAR3TtWPNx5bhDcBvAGBnn76aVssNvuee+452Y8Hb4IuEtYmM3cyAgVAwKds5E/27K6ZR/SYxPf+u3aamJhkFQGKkHKVIGu3B3zHtYuLxmVh5/33nM+kJwmCbGZMnyozAF69ek36r6tXd/2rOEL0u4sNThCiFBcvWSrb+Gfcq6/T4kULpBll0iT4l/eT8hBij4AeKFYovZUrEmQSJwTUwESAla2th5omuACNUc+PoEEDB0j56oFx5cp/hR/8YodSEfbf6+9PyuAjPGzU6hth9TANgWbOmi28VVrJ7JbwoUc0J9LKlhDfqbzAU30nrIb1NPaVMdSqVUt9l2z37NmD8AEBL73vvuw0//P92rX02OOPU2PxsMTbjtpr0PNYtuO6dpVdBw8epOwL2ZbDfM4IuA0Bn1qRG9mYu0W5HhkKxcYiJB8ExQFF6WlKSPiOXn5lnGZqgEIPFCHvSokj18mPP/0sbwOKCXZxEKIqEX6uJ6xkX39jvPSfxhvJ/+miGsGrPFogB6H0UOII7pk2faYmRinMG2a3Q/2GpOWYNkk2rLFcvHipxBHfSSlx5Pt+euAzmmLOKyP3DG8aixYvEatfk6sj7hmf0qVzvXuwcRvf5ynasGGj/M74PvDzxsoavLjf1N9/lw+tXMkkfnXre9WPo+2IZ7Z4gEA29ieGjxhhOdXqvKtQ4uphMmXKFKtx7mAE3InAHcEhYc7/h7vzij4oKzzC5O2yf99el78dFF60sCFXFOlO4bp3KPV3LYTeZWF2JsAfvYFImvXfq1dlIJDyCbfD7nI3zEFzP/+3nIcHFIKAYOapWq0qJSdvd3vCLP0NhobWoYYihP76teuUJsxNqQI/9fDR87mjPW7cOLkqvy6Sl7WNaevwOgnLE4R5p6qI3j1AA/r3d8flWQYjYBcBnzKt2P2WXjyAjcjNv/zq0TtEUJE+sMijFzMLh2tgYbgHHj78B+FTGPThhx9STNu28k0Dpd7sVQkqL94O/P0DCL7jr72a9w2qMO6Tr1H8EGBFXvx+c/7G+UQAm9RdOudu5NoTc1GYxto99JC9Ye5nBNyOgE/ZyN2ODgtkBBgBRuA2QIBX5LfBj+Ttt/jnnxe1TeIzZ854++3y/TECPocAb3a64SctyGanGy7PIhgBRqCYI8CmlWL+H8AdX//IH6mEDxMjwAgUDQJsWikC3GNiYqSPcbooxpsucnCoqEFXb0WfTdBRRkGEiQv3Zy1y0sh14J8Nv2zIdSTbiCzmYQQYAc8iwIrcs/jalD7+zTe1sHUw7BKuekOHDLHJ66hz+XcrRLh5oKi9uZLemTTJLuvKVSukO9xSUQx48uTJdvn0A++99x61btOG0o6kUa9euZGxeh5uMwKMgHcg4LOmFeTTCBa5oPFxRljZRkaG00NtY4R7WUdq3bqlyL0S4mxavsd/+vFHQhIlhOuDokTwTO/evV2S16NnT6nEEYU5e1ZulKYtIcuWfSu7n+jRw26JNst5M2aYZAaHBLMrnSU4fM4IeBkCPrfZiSjG1q1ayFwcCus5n82za1YICQ6mDh0e1pJKqTk4Il/JN98uF6H01tkD9Xz53eyE6WL9hg2yQELStiQaOdx56Le67rr166V5BgmdBg0cqLptHmFaAX/JkiVo86ZNNGbMGJt8lp1Lly2jmjVqyEjTzp06WQ5r58o+HlKnrtbHDUaAESg8BHxmRY4Mdk/1i6fYLp3yKHFHUJYvfzd16tReU+KoeJ4isgYqmzWy4T0mqtZ7ihBKfvr0aSm+cmBlw5eJjYvT8nhM/cR5Hg+ElG/atFHKb9GylZZa1dkFP509W7Ig0RYiGZkYAUbAOxHwGUVeW2T5Q94SEFbQGSIxlDNCaTdVveYXUfR44aKltG7dBpo7b75WIQjKHkUnPEVXr5oSRJUoZXy7YsCAAfJ2MoXP9q7duwzd2ieffCL5sCp/SqSWNUI//vCDltJ32LPPGpnCPIwAI1AECPiMIsfqFtXkV65aQ/O/WkBpaUedwhkksgEqsqwKtG9/ihqiKuYKN1pHETdUFZ71P68zfCdIyHXmzFnJHyMSPhmlrVu2SFak+mViBBgB70TAZxR58vYdtGDhEplT2ijUx3V1Oe+6y1RdXs0tU6a0atLJkye1tqcapXWFMBxdo4awWcO2DkpJ2e+I1Wrs1CnT96hatarVmL2O1FSTfzjs7CrNrj1e7mcEGIGiQcBnFHl+4FPVdTAXFeeVmQV5vaMam8qTwV6enX0hP+INzbmQnSP5KgsvG/huO6OmzZppLHv27NHaRhqqWIWq2GNkjr5OpitlzozIZh5GgBFwDwLFWpEjL/fmzb/KvNINGtQTvtyDqE98L3pm0ADhpnePLFywbv1G9yBtR8pecw5zPET6D3Cetzoy0pT7HG6Hx3V1Lu2Iz9ONSjUgXAsreyOkCg+Dt3FUtJEpzMMIMAKFjECxVuTA+oCoCHT4jyMSdpgsoMAVrVi5Wtja09WpR47/+vRTkXDKpGAHDx4iNlvX0/Lly+mdd96xeb3QOqYan/kpDqEvANykSROb8i074YL51183ZHdDF4tFW8ric0aAEfAMAsVakaMUWb++valuWKhcfR8RUYx79u4TLoGZEu1uXWOpY8f2nkHeLBXh79OnTRMPk8Oyp6woFF3l3nspspFp5W15cbgSghDE5Cqp0mOYd9lcTNiIjDvvvEOyocIQEyPACHgfAs6Nst53z267o5iYNqIepGlTE4E/SoHjAtHRjalVyxYUKiI8G4iVqL4qvdtuQAiKahwl6mdOlyJRUWbW7JmyVNq5c+dsXubQoUMUFR0tg4igzF3Jg9IwPFyTuT05WWs7aqAeptpc1ZtZHM3hMUaAEShcBIr1irxmjeoS7atipalX4ujcuXO3piTr1jWZMzzx08T37aOJHT1qFC0RxYcPpKTQmUzTW4E2aG7s2r1b6woLC9PaRhr16ppcCGEqycrKMjKFGjVqpPHt3LFDa3ODEWAEvAeBYq3IlZfIiRO23QtVEV8VaOSJn025AsI7xkhwz7akbdptRJqLPmsdThq1ateWHDk5xr1wGjRsqEnlFbkGBTcYAa9CoFgrctRgBFWoEGD1o1SuXEmEspt8y2Hy8BQp+/NZO6YUy+tmZ5/XNh/DIyMshx2eq4dGRkaGQz79YEOzIseDxhUzjl4GtxkBRsCzCPiUIof/t1/ZsvJTRhdg4yc2EFW/svcCVhXpGBAQIGzVuSYE8MA+rigt3bOeK+o6Ro8HDpiiTtu1a2d0ijSR3COqu4MSEhIMzYMNvpnZb92oTd2QYGZiBBgBtyLgU5udT/bsTkpZ6VGK752bTzsxMYkQBQr6SYS4w28cihupa5s1ayITZiFgRnmFwP1u9+69enFubfv5lZPybokUA0ZplkhbizSz8LrpJLISrl271unU54X9HXTt2jVaJfKXG6F+/fppQUrTZ5g2ZI3MYx5GgBEoXAR8akUuYmSc0i3KZUJyrWXfJNB5kaMFBA8WrM6VEv9DuCMuXrJMBgw5FZwPBn9/fwoKqiJnnjCQ5EtdInlbMp09a/JqGWygIEVAQAWRb93kzrhixXdKjNNj7/jekiddvJEcMfvaO53EDIwAI1DoCPjUivzrBYtcBhDmlYUiRwt8rAMDK8pjTk6O8Oo4T9evX3dZnpEJs2bNolDhcYKVv0oLsHbNGiNTNZ5JEyfQlKlTCQm06tWrR3BLtEfPPz9SXgdBRB9N/sgeW57+Fi1byqpC6Hxz/Pg8Y3zCCDAC3oWAT63ICwItNvOOH8+g1NTfpSuip5Q47jFMuAHCBAQlDuUKl0Mj5hH990tMTCSszDE/Lq6rfsiqHSlcCME3bcpUwxuWnTt3lnPWi4IUKvLUSjB3MAKMgFcgcEdwSFiurcErbun2uwlXKwQFBZnS52Zmnrn9vqyNO+YKQTZA4S5GoBAR8CnTSiHiVqBL+YoCLxAIPJkRYATchgCbVtwGJQtiBBgBRqBoEGBFXjS481UZAUaAEXAbAmxacRuUt7+g79euyteXCKljyuGSr8k8iRFgBAqMAK/ICwwhC2AEGAFGoGgR4BV50eLvVVfv2CnWq+6Hb4YRYASMIfA/3w6x82TEZA8AAAAASUVORK5CYII=;" vertex="1" parent="1">
          <mxGeometry x="387.5" y="590" width="385.1" height="510" as="geometry" />
        </mxCell>
      </root>
    </mxGraphModel>
  </diagram>
</mxfile>
